<?xml version="1.0" encoding="UTF-8" standalone="no"?>
<!-- Created with Inkscape (http://www.inkscape.org/) -->
<svg
   xmlns:svg="http://www.w3.org/2000/svg"
   xmlns="http://www.w3.org/2000/svg"
   version="1.0"
   width="110"
   height="110"
   id="svg3197">
  <defs
     id="defs3199" />
  <g
     transform="translate(-300.4112,-414.20196)"
     id="layer1">
    <g
       transform="matrix(1.25,0,0,1.25,-16.715262,334.27276)"
       id="g3995">
      <path
         d="M 340.80078,151.04297 L 254.60156,151.04297 L 254.60156,64.84375 L 340.80078,64.84375 L 340.80078,151.04297 z"
         id="path4096"
         style="fill:#1768ba;fill-opacity:1;fill-rule:nonzero;stroke:none" />
      <path
         d="M 281.59375,109.61719 C 281.64844,111.42969 281.66406,111.95703 283.93359,112.23828 L 283.93359,112.5 L 277.86328,112.5 L 277.86328,112.23828 C 279.97656,111.95703 279.99219,111.42969 280.04688,109.61719 L 280.04688,103.42188 C 279.99219,101.60937 279.97656,101.07812 277.86328,100.79688 L 277.86328,100.53516 L 283.46094,100.53516 L 283.46094,100.79688 C 281.66406,101.07812 281.64844,101.60937 281.59375,103.42188 L 281.59375,109.61719 z M 289.54688,100.52344 L 289.54688,100.78516 C 287.53906,101 286.10547,102.66016 284.80469,104.01563 L 283.30469,105.54688 L 286.91797,109.57031 C 288.62109,111.30859 289.33203,112.24609 290.76562,112.3125 L 290.76172,112.57812 C 287.8125,112.94141 287.08594,112.16406 285.42969,110.35156 L 281.83984,106.44531 L 284.57812,103.52344 C 286.42578,101.44531 286.16406,100.91016 284.98828,100.78516 L 284.98828,100.52344 L 289.54688,100.52344 z"
         id="path344"
         style="fill:#ffffff;fill-opacity:1;fill-rule:nonzero;stroke:none" />
      <path
         d="M 302.08203,100.51563 L 302.29297,103.74609 L 302.04688,103.80078 C 301.42969,101.61719 300.46094,101.0625 298.4375,101.0625 L 297.38281,101.0625 L 297.38281,109.19531 C 297.38281,111.375 297.48828,111.95703 299.84766,112.23828 L 299.84766,112.5 L 293.37109,112.5 L 293.37109,112.23828 C 295.73047,111.95703 295.83203,111.375 295.83203,109.19531 L 295.83203,101.0625 L 294.77734,101.0625 C 292.75391,101.0625 291.78516,101.61719 291.17188,103.80078 L 290.92187,103.74609 L 291.12891,100.51563 L 302.08203,100.51563 z"
         id="path346"
         style="fill:#ffffff;fill-opacity:1;fill-rule:nonzero;stroke:none" />
      <path
         d="M 307.55859,109.61719 C 307.55859,111.55078 307.59375,111.90234 309.89844,112.23828 L 309.89844,112.5 L 303.82812,112.5 L 303.82812,112.23828 C 305.9375,111.95703 305.95703,111.42969 306.00781,109.61719 L 306.00781,103.42188 C 305.95703,101.60937 305.9375,101.07812 303.82812,100.79688 L 303.82812,100.53516 L 309.89844,100.53516 L 309.89844,100.79688 C 307.59375,101.13281 307.55859,101.48438 307.55859,103.42188 L 307.55859,105.97266 L 314.15234,105.97266 L 314.15234,103.42188 C 314.15234,101.48438 314.11719,101.13281 311.8125,100.79688 L 311.8125,100.53516 L 317.88281,100.53516 L 317.88281,100.79688 C 315.77344,101.07812 315.75391,101.60937 315.70312,103.42188 L 315.70312,109.61719 C 315.75391,111.42969 315.77344,111.95703 317.88281,112.23828 L 317.88281,112.5 L 311.8125,112.5 L 311.8125,112.23828 C 314.11719,111.90234 314.15234,111.55078 314.15234,109.61719 L 314.15234,106.71094 L 307.55859,106.71094 L 307.55859,109.61719 z"
         id="path348"
         style="fill:#ffffff;fill-opacity:1;fill-rule:nonzero;stroke:none" />
      <path
         d="M 291.62891,139.90625 C 291.62891,139.90625 292.77734,139.89453 293.88672,141.00391 C 295,142.11719 297.07031,144.58203 297.78125,145.30859 C 299.35938,146.92188 300.51953,146.24609 300.51953,146.24609 C 300.51953,146.24609 299.44141,146.17578 298.51953,145.25 C 297.60547,144.33984 295.05859,141.37891 294.32031,140.64062 C 292.94141,139.26172 291.62891,139.90625 291.62891,139.90625"
         id="path350"
         style="fill:#ffffff;fill-opacity:1;fill-rule:nonzero;stroke:none" />
      <path
         d="M 294.16016,139.90625 C 294.16016,139.90625 295.30859,139.89453 296.42187,141.00391 C 297.53125,142.11719 299.60156,144.58203 300.3125,145.30859 C 301.89453,146.92188 303.05078,146.24609 303.05078,146.24609 C 303.05078,146.24609 301.97656,146.17578 301.05078,145.25 C 300.14063,144.33984 297.58984,141.37891 296.85156,140.64062 C 295.47266,139.26172 294.16016,139.90625 294.16016,139.90625"
         id="path352"
         style="fill:#ffffff;fill-opacity:1;fill-rule:nonzero;stroke:none" />
      <path
         d="M 303.65234,139.90625 C 303.65234,139.90625 302.50781,139.89453 301.39453,141.00391 C 300.28516,142.11719 298.21484,144.58203 297.5,145.30859 C 295.92187,146.92188 294.76562,146.24609 294.76562,146.24609 C 294.76562,146.24609 295.83984,146.17578 296.76562,145.25 C 297.67578,144.33984 300.22656,141.37891 300.96484,140.64062 C 302.34375,139.26172 303.65234,139.90625 303.65234,139.90625"
         id="path354"
         style="fill:#ffffff;fill-opacity:1;fill-rule:nonzero;stroke:none" />
      <path
         d="M 301.12109,139.90625 C 301.12109,139.90625 299.97266,139.89453 298.86328,141.00391 C 297.75391,142.11719 295.67969,144.58203 294.96875,145.30859 C 293.39062,146.92188 292.23437,146.24609 292.23437,146.24609 C 292.23437,146.24609 293.30859,146.17578 294.23437,145.25 C 295.14453,144.33984 297.69531,141.37891 298.42969,140.64062 C 299.8125,139.26172 301.12109,139.90625 301.12109,139.90625"
         id="path356"
         style="fill:#ffffff;fill-opacity:1;fill-rule:nonzero;stroke:none" />
      <path
         d="M 307.02344,90.945312 C 304.07031,89.851562 300.94922,89.296875 297.75391,89.296875 L 297.54688,89.296875 C 294.34766,89.296875 291.23047,89.851562 288.27344,90.945312"
         id="path358"
         style="fill:none;stroke:#ffffff;stroke-width:0.59799999;stroke-linecap:round;stroke-linejoin:miter;stroke-miterlimit:4;stroke-opacity:1" />
      <path
         d="M 278.40234,116.67187 L 279.33984,116.67187 L 280.38672,119.82812 L 280.39844,119.82812 L 281.44531,116.67187 L 282.29297,116.67187 L 280.82031,120.67578 L 279.87891,120.67578 L 278.40234,116.67187 z"
         id="path360"
         style="fill:#ffffff;fill-opacity:1;fill-rule:nonzero;stroke:none" />
      <path
         d="M 283.50781,116.67187 L 286.19531,116.67187 L 286.19531,117.33594 L 284.36719,117.33594 L 284.36719,118.27344 L 286.07812,118.27344 L 286.07812,118.94141 L 284.36719,118.94141 L 284.36719,120.01172 L 286.25781,120.01172 L 286.25781,120.67578 L 283.50781,120.67578 L 283.50781,116.67187 z"
         id="path362"
         style="fill:#ffffff;fill-opacity:1;fill-rule:nonzero;stroke:none" />
      <path
         d="M 287.46484,116.67187 L 290.71094,116.67187 L 290.71094,117.33594 L 289.51953,117.33594 L 289.51953,120.67578 L 288.65625,120.67578 L 288.65625,117.33594 L 287.46484,117.33594 L 287.46484,116.67187 z"
         id="path364"
         style="fill:#ffffff;fill-opacity:1;fill-rule:nonzero;stroke:none" />
      <path
         d="M 291.92969,116.67187 L 294.61328,116.67187 L 294.61328,117.33594 L 292.78906,117.33594 L 292.78906,118.27344 L 294.5,118.27344 L 294.5,118.94141 L 292.78906,118.94141 L 292.78906,120.01172 L 294.67578,120.01172 L 294.67578,120.67578 L 291.92969,120.67578 L 291.92969,116.67187 z"
         id="path366"
         style="fill:#ffffff;fill-opacity:1;fill-rule:nonzero;stroke:none" />
      <path
         d="M 298.69531,120.67969 L 297.11328,117.34766 L 297.10156,117.35937 L 297.10156,120.67969 L 296.29687,120.67969 L 296.29687,116.67187 L 297.57422,116.67187 L 299.09766,119.82422 L 299.10938,119.8125 L 299.10938,116.67187 L 299.91406,116.67187 L 299.91406,120.67969 L 298.69531,120.67969 z"
         id="path368"
         style="fill:#ffffff;fill-opacity:1;fill-rule:nonzero;stroke:none" />
      <path
         d="M 303.54688,117.8125 C 303.51172,117.41016 303.29687,117.21094 302.87891,117.21094 C 302.5625,117.21094 302.24219,117.375 302.24219,117.72656 C 302.24219,118.15625 302.62891,118.20703 302.97266,118.29297 C 303.58203,118.44531 304.48437,118.61719 304.48437,119.42188 C 304.48437,120.41797 303.61719,120.76172 302.75781,120.76172 C 301.84375,120.76172 301.19141,120.40625 301.21875,119.39453 L 302.09766,119.39453 C 302.06641,119.83984 302.32031,120.13672 302.76953,120.13672 C 303.11328,120.13672 303.56641,120.03516 303.56641,119.60547 C 303.56641,119.13281 302.99609,119.10156 302.65234,119.01172 C 302.08984,118.875 301.32422,118.61719 301.32422,117.91016 C 301.32422,116.99219 302.16797,116.58594 302.99219,116.58594 C 303.76953,116.58594 304.37109,117.00781 304.37109,117.8125 L 303.54688,117.8125 z"
         id="path370"
         style="fill:#ffffff;fill-opacity:1;fill-rule:nonzero;stroke:none" />
      <path
         d="M 306.64453,118.40234 L 306.65625,118.40234 L 307.98828,116.67187 L 308.99219,116.67187 L 307.52344,118.46484 L 309.12109,120.67578 L 308.05078,120.67578 L 306.65625,118.63672 L 306.64453,118.63672 L 306.64453,120.67578 L 305.78516,120.67578 L 305.78516,116.67187 L 306.64453,116.67187 L 306.64453,118.40234 z"
         id="path372"
         style="fill:#ffffff;fill-opacity:1;fill-rule:nonzero;stroke:none" />
      <path
         d="M 309.80859,120.67969 L 311.25781,116.67187 L 312.27734,116.67187 L 313.67188,120.67969 L 312.80469,120.67969 L 312.51562,119.82812 L 310.92969,119.82812 L 310.62891,120.67969 L 309.80859,120.67969 z M 312.30078,119.16016 L 311.75,117.45313 L 311.73828,117.45313 L 311.15234,119.16016 L 312.30078,119.16016 z"
         id="path374"
         style="fill:#ffffff;fill-opacity:1;fill-rule:nonzero;stroke:none" />
      <path
         d="M 314.73047,120.67969 L 314.73047,116.67187 L 315.96875,116.67187 C 316.85547,116.67578 317.60547,116.88672 317.60547,117.90234 C 317.60547,118.62891 317.11328,119.10547 316.21875,119.13672 L 315.59375,119.13672 L 315.59375,120.67969 L 314.73047,120.67969 z M 315.59375,118.46875 C 316.07031,118.44531 316.69141,118.61328 316.69141,117.90234 C 316.69141,117.19141 316.07031,117.35937 315.59375,117.33594 L 315.59375,118.46875 z"
         id="path376"
         style="fill:#ffffff;fill-opacity:1;fill-rule:nonzero;stroke:none" />
      <path
         d="M 278.73828,125.37891 C 278.73828,124.19922 279.33594,123.29297 280.66406,123.29297 C 281.99219,123.29297 282.58984,124.19922 282.58984,125.37891 C 282.58984,126.5625 281.99219,127.46875 280.66406,127.46875 C 279.33594,127.46875 278.73828,126.5625 278.73828,125.37891 M 279.65234,125.37891 C 279.65234,126.07031 279.81641,126.84766 280.66406,126.84766 C 281.51172,126.84766 281.67578,126.07031 281.67578,125.37891 C 281.67578,124.69141 281.51172,123.91406 280.66406,123.91406 C 279.81641,123.91406 279.65234,124.69141 279.65234,125.37891"
         id="path378"
         style="fill:#ffffff;fill-opacity:1;fill-rule:nonzero;stroke:none" />
      <path
         d="M 286.17578,124.67578 C 286.17969,124.25391 285.92578,123.91406 285.41016,123.91406 C 284.80078,123.91406 284.64453,124.82031 284.64453,125.37891 C 284.64453,125.94141 284.80078,126.84375 285.41016,126.84375 C 285.92578,126.84375 286.17969,126.50781 286.17578,126.08594 L 287.09375,126.08594 C 287.05469,127.08984 286.33203,127.46875 285.41016,127.46875 C 284.25,127.46875 283.72656,126.55078 283.72656,125.37891 C 283.72656,124.21094 284.25,123.29297 285.41016,123.29297 C 286.33203,123.29297 287.05469,123.67187 287.09375,124.67578 L 286.17578,124.67578 z"
         id="path380"
         style="fill:#ffffff;fill-opacity:1;fill-rule:nonzero;stroke:none" />
      <path
         d="M 288.40234,127.38281 L 288.40234,123.375 L 289.26172,123.375 L 289.26172,124.95703 L 290.77734,124.95703 L 290.77734,123.375 L 291.64844,123.375 L 291.64844,127.38281 L 290.78516,127.38281 L 290.78516,125.625 L 289.26172,125.625 L 289.26172,127.38281 L 288.40234,127.38281 z"
         id="path382"
         style="fill:#ffffff;fill-opacity:1;fill-rule:nonzero;stroke:none" />
      <path
         d="M 296.11719,125.10937 L 296.12891,125.10937 L 297.46094,123.375 L 298.46484,123.375 L 296.99609,125.16797 L 298.59375,127.38281 L 297.52344,127.38281 L 296.12891,125.33984 L 296.11719,125.33984 L 296.11719,127.38281 L 295.25781,127.38281 L 295.25781,123.375 L 296.11719,123.375 L 296.11719,125.10937 z"
         id="path384"
         style="fill:#ffffff;fill-opacity:1;fill-rule:nonzero;stroke:none" />
      <path
         d="M 299.26562,125.37891 C 299.26562,124.19922 299.86328,123.29297 301.19141,123.29297 C 302.51562,123.29297 303.11719,124.19922 303.11719,125.37891 C 303.11719,126.5625 302.51562,127.46875 301.19141,127.46875 C 299.86328,127.46875 299.26562,126.5625 299.26562,125.37891 M 300.17969,125.37891 C 300.17969,126.07031 300.33984,126.84766 301.19141,126.84766 C 302.03906,126.84766 302.19922,126.07031 302.19922,125.37891 C 302.19922,124.69141 302.03906,123.91406 301.19141,123.91406 C 300.33984,123.91406 300.17969,124.69141 300.17969,125.37891"
         id="path386"
         style="fill:#ffffff;fill-opacity:1;fill-rule:nonzero;stroke:none" />
      <path
         d="M 306.75,127.38281 L 305.16797,124.05469 L 305.15625,124.06641 L 305.15625,127.38281 L 304.35547,127.38281 L 304.35547,123.375 L 305.62891,123.375 L 307.15625,126.53125 L 307.16797,126.51953 L 307.16797,123.375 L 307.97266,123.375 L 307.97266,127.38281 L 306.75,127.38281 z"
         id="path388"
         style="fill:#ffffff;fill-opacity:1;fill-rule:nonzero;stroke:none" />
      <path
         d="M 311.66016,124.51953 C 311.625,124.11328 311.41016,123.91406 310.99219,123.91406 C 310.67578,123.91406 310.35547,124.08203 310.35547,124.42969 C 310.35547,124.86328 310.74219,124.91406 311.08594,124.99609 C 311.69922,125.15234 312.59766,125.32422 312.59766,126.12891 C 312.59766,127.125 311.73047,127.46875 310.87109,127.46875 C 309.95703,127.46875 309.30469,127.11328 309.33594,126.10156 L 310.21094,126.10156 C 310.17969,126.54688 310.43359,126.84375 310.88281,126.84375 C 311.22656,126.84375 311.67969,126.73828 311.67969,126.3125 C 311.67969,125.83984 311.10938,125.80859 310.76562,125.71875 C 310.20703,125.58203 309.44141,125.32422 309.44141,124.61328 C 309.44141,123.69922 310.28125,123.29297 311.10547,123.29297 C 311.88281,123.29297 312.48828,123.71484 312.48828,124.51953 L 311.66016,124.51953 z"
         id="path390"
         style="fill:#ffffff;fill-opacity:1;fill-rule:nonzero;stroke:none" />
      <path
         d="M 313.62109,123.375 L 316.86719,123.375 L 316.86719,124.04297 L 315.67578,124.04297 L 315.67578,127.38281 L 314.8125,127.38281 L 314.8125,124.04297 L 313.62109,124.04297 L 313.62109,123.375 z"
         id="path392"
         style="fill:#ffffff;fill-opacity:1;fill-rule:nonzero;stroke:none" />
      <path
         d="M 300.82031,84.089844 C 300.82422,84.097656 300.83203,84.105469 300.83594,84.113281 C 300.83984,84.105469 300.84375,84.101562 300.84766,84.097656 L 300.82031,84.089844 z"
         id="path394"
         style="fill:#ffffff;fill-opacity:1;fill-rule:nonzero;stroke:none" />
      <path
         d="M 313.16406,83.308594 C 313.16406,83.308594 313.16016,83.308594 313.15625,83.304688 C 313.42969,83.054688 313.60156,82.695312 313.60156,82.296875 C 313.60156,81.535156 312.98047,80.917969 312.22266,80.917969 C 312.16016,80.917969 312.10156,80.921875 312.04297,80.929688 C 312.03516,80.890625 312.01953,80.851562 312.00781,80.8125 C 312.38281,80.621094 312.64063,80.238281 312.64063,79.789062 C 312.64063,79.152344 312.12109,78.632812 311.48437,78.632812 C 311.27344,78.632812 311.07422,78.695312 310.90234,78.796875 C 310.87109,78.757812 310.83984,78.71875 310.80469,78.683594 C 310.98047,78.507812 311.09375,78.269531 311.09375,78 C 311.09375,77.472656 310.66797,77.046875 310.14063,77.046875 C 309.82031,77.046875 309.53516,77.210938 309.36328,77.457031 C 309.30859,77.421875 309.25391,77.382812 309.19922,77.347656 C 309.30469,77.203125 309.37109,77.027344 309.37109,76.835938 C 309.37109,76.359375 308.98047,75.96875 308.5,75.96875 C 308.125,75.96875 307.80859,76.210938 307.6875,76.546875 C 307.60156,76.507812 307.50781,76.46875 307.41406,76.429688 C 307.48437,76.3125 307.52734,76.175781 307.52734,76.03125 C 307.52734,75.597656 307.17578,75.246094 306.74219,75.246094 C 306.35156,75.246094 306.02734,75.535156 305.96875,75.910156 C 305.91016,75.890625 305.85156,75.871094 305.79297,75.855469 C 305.66406,75.394531 305.24609,75.054688 304.74219,75.054688 C 304.63281,75.054688 304.52344,75.074219 304.42187,75.105469 C 304.38281,75.074219 304.34375,75.042969 304.30078,75.011719 C 304.30469,74.992188 304.30469,74.976562 304.30469,74.960938 C 304.30469,74.449219 303.89062,74.035156 303.37891,74.035156 C 303.17969,74.035156 302.99609,74.101562 302.84375,74.210938 C 302.80859,74.195312 302.76953,74.183594 302.73437,74.167969 C 302.73437,74.160156 302.73828,74.152344 302.73828,74.144531 C 302.73828,73.683594 302.36328,73.308594 301.90234,73.308594 C 301.58594,73.308594 301.31641,73.484375 301.17578,73.742188 C 301.10938,73.730469 301.04297,73.71875 300.97656,73.707031 C 300.97656,73.695312 300.98047,73.6875 300.98047,73.675781 C 300.98047,73.253906 300.64063,72.914062 300.21875,72.914062 C 299.85156,72.914062 299.55078,73.171875 299.47656,73.515625 C 299.41797,73.511719 299.35547,73.507812 299.29687,73.503906 C 299.38672,73.285156 299.4375,73.046875 299.4375,72.796875 C 299.4375,72.105469 299.04688,71.503906 298.47656,71.203125 L 298.47656,70.171875 L 298.77734,70.171875 C 299.09375,70.171875 299.32422,69.820312 299.32422,69.332031 C 299.32422,68.847656 299.09375,68.496094 298.77734,68.496094 L 298.47656,68.496094 L 298.47656,68.195312 C 298.47656,67.878906 298.125,67.648438 297.64063,67.648438 C 297.15625,67.648438 296.80078,67.878906 296.80078,68.195312 L 296.80078,68.496094 L 296.5,68.496094 C 296.18359,68.496094 295.95312,68.847656 295.95312,69.332031 C 295.95312,69.820312 296.18359,70.171875 296.5,70.171875 L 296.80078,70.171875 L 296.80078,71.203125 C 296.22656,71.503906 295.83594,72.105469 295.83594,72.796875 C 295.83594,73.046875 295.88672,73.285156 295.98047,73.5 C 295.90625,73.503906 295.82812,73.511719 295.75391,73.515625 C 295.68359,73.171875 295.37891,72.914062 295.01172,72.914062 C 294.59375,72.914062 294.25,73.253906 294.25,73.675781 C 294.25,73.6875 294.25391,73.695312 294.25391,73.707031 C 294.1875,73.71875 294.12109,73.730469 294.05469,73.742188 C 293.91406,73.484375 293.64453,73.308594 293.33203,73.308594 C 292.87109,73.308594 292.49219,73.683594 292.49219,74.144531 C 292.49219,74.152344 292.49609,74.160156 292.49609,74.167969 C 292.46094,74.183594 292.42187,74.195312 292.38672,74.210938 C 292.23828,74.101562 292.05078,74.035156 291.85156,74.035156 C 291.33984,74.035156 290.92578,74.449219 290.92578,74.960938 C 290.92578,74.976562 290.92578,74.992188 290.92969,75.011719 C 290.88672,75.042969 290.84766,75.074219 290.80859,75.105469 C 290.70703,75.074219 290.60156,75.054688 290.48828,75.054688 C 289.98828,75.054688 289.57031,75.394531 289.4375,75.855469 C 289.37891,75.871094 289.32031,75.894531 289.26172,75.910156 C 289.20312,75.535156 288.87891,75.246094 288.48828,75.246094 C 288.05469,75.246094 287.70312,75.597656 287.70312,76.03125 C 287.70312,76.175781 287.74609,76.3125 287.81641,76.429688 C 287.72266,76.46875 287.63281,76.507812 287.54297,76.546875 C 287.42187,76.210938 287.10547,75.96875 286.73047,75.96875 C 286.25,75.96875 285.86328,76.359375 285.86328,76.835938 C 285.86328,77.027344 285.92578,77.203125 286.03516,77.347656 C 285.97656,77.382812 285.92187,77.421875 285.86719,77.457031 C 285.69531,77.210938 285.41016,77.046875 285.08984,77.046875 C 284.5625,77.046875 284.13672,77.472656 284.13672,78 C 284.13672,78.269531 284.25,78.507812 284.42578,78.683594 C 284.39453,78.71875 284.36328,78.757812 284.32812,78.796875 C 284.15625,78.695312 283.96094,78.632812 283.74609,78.632812 C 283.10938,78.632812 282.58984,79.152344 282.58984,79.789062 C 282.58984,80.238281 282.84766,80.621094 283.22266,80.8125 C 283.21094,80.851562 283.19922,80.890625 283.1875,80.929688 C 283.12891,80.921875 283.07031,80.917969 283.00781,80.917969 C 282.25,80.917969 281.62891,81.535156 281.62891,82.296875 C 281.62891,82.695312 281.80078,83.054688 282.07422,83.304688 C 282.06641,83.308594 282.0625,83.308594 282.0625,83.308594 C 282.0625,83.308594 282.49219,83.761719 283.05859,84.496094 C 282.89844,84.816406 282.86719,85.203125 283.00391,85.566406 C 283.23047,86.140625 283.81641,86.46875 284.40234,86.390625 C 284.94141,87.074219 285.84375,87.886719 286.57812,87.679688 C 286.57812,87.679688 291.1875,85.53125 297.60938,85.523438 C 304.03516,85.53125 308.64063,87.679688 308.64063,87.679688 C 309.37891,87.890625 310.28516,87.066406 310.82422,86.382812 C 311.42578,86.492188 312.04688,86.160156 312.28125,85.566406 C 312.42578,85.183594 312.38281,84.777344 312.19922,84.445312 C 312.62891,83.894531 312.97266,83.511719 313.09766,83.371094 C 313.12109,83.351562 313.14063,83.332031 313.16406,83.308594 M 312.22266,81.382812 C 312.72266,81.382812 313.13281,81.792969 313.13281,82.296875 C 313.13281,82.648438 312.92969,82.953125 312.63672,83.105469 C 312.41016,83.015625 312.15625,82.914062 311.97656,82.847656 C 311.80078,82.777344 311.62109,82.753906 311.44531,82.761719 C 311.36328,82.625 311.30859,82.464844 311.30859,82.296875 C 311.30859,81.792969 311.71875,81.382812 312.22266,81.382812 M 311.48437,79.101562 C 311.86328,79.101562 312.17188,79.410156 312.17188,79.789062 C 312.17188,80.167969 311.86328,80.476562 311.48437,80.476562 C 311.10547,80.476562 310.79687,80.167969 310.79687,79.789062 C 310.79687,79.410156 311.10547,79.101562 311.48437,79.101562 M 310.14063,77.515625 C 310.41016,77.515625 310.625,77.734375 310.625,78 C 310.625,78.265625 310.41016,78.484375 310.14063,78.484375 C 309.875,78.484375 309.66016,78.265625 309.66016,78 C 309.66016,77.734375 309.875,77.515625 310.14063,77.515625 M 308.5,76.4375 C 308.72266,76.4375 308.90234,76.617188 308.90234,76.835938 C 308.90234,77.054688 308.72266,77.234375 308.5,77.234375 C 308.28125,77.234375 308.10156,77.054688 308.10156,76.835938 C 308.10156,76.617188 308.28125,76.4375 308.5,76.4375 M 306.74219,75.710938 C 306.91797,75.710938 307.05859,75.855469 307.05859,76.03125 C 307.05859,76.207031 306.91797,76.347656 306.74219,76.347656 C 306.56641,76.347656 306.42578,76.207031 306.42578,76.03125 C 306.42578,75.855469 306.56641,75.710938 306.74219,75.710938 M 306.30078,78 C 306.30078,78.425781 305.95312,78.773438 305.52734,78.773438 C 305.10156,78.773438 304.75781,78.425781 304.75781,78 C 304.75781,77.574219 305.10156,77.230469 305.52734,77.230469 C 305.95312,77.230469 306.30078,77.574219 306.30078,78 M 305.73437,82.363281 L 305.73828,82.363281 C 305.73828,82.363281 305.73437,82.363281 305.73437,82.363281 C 305.73437,82.363281 305.73437,82.363281 305.73437,82.363281 M 304.77734,80.730469 C 304.66797,80.710938 304.5625,80.707031 304.46094,80.710938 C 304.41797,80.597656 304.39453,80.480469 304.39453,80.355469 C 304.39453,79.796875 304.84766,79.339844 305.41016,79.339844 C 305.96875,79.339844 306.42578,79.796875 306.42578,80.355469 C 306.42578,80.839844 306.08594,81.242188 305.63281,81.34375 C 305.45703,81.039062 305.15234,80.804688 304.77734,80.730469 M 304.74219,75.523438 C 305.08984,75.523438 305.37109,75.804688 305.37109,76.152344 C 305.37109,76.496094 305.08984,76.777344 304.74219,76.777344 C 304.39844,76.777344 304.11719,76.496094 304.11719,76.152344 C 304.11719,75.804688 304.39844,75.523438 304.74219,75.523438 M 303.37891,74.503906 C 303.63281,74.503906 303.83984,74.707031 303.83984,74.960938 C 303.83984,75.210938 303.63281,75.414062 303.37891,75.414062 C 303.12891,75.414062 302.92578,75.210938 302.92578,74.960938 C 302.92578,74.707031 303.12891,74.503906 303.37891,74.503906 M 301.90234,73.777344 C 302.10547,73.777344 302.26953,73.941406 302.26953,74.144531 C 302.26953,74.347656 302.10547,74.515625 301.90234,74.515625 C 301.69922,74.515625 301.53516,74.347656 301.53516,74.144531 C 301.53516,73.941406 301.69922,73.777344 301.90234,73.777344 M 300.21875,73.382812 C 300.38281,73.382812 300.51172,73.511719 300.51172,73.675781 C 300.51172,73.839844 300.38281,73.96875 300.21875,73.96875 C 300.05859,73.96875 299.92578,73.839844 299.92578,73.675781 C 299.92578,73.511719 300.05859,73.382812 300.21875,73.382812 M 298.92578,72.808594 C 298.92578,72.832031 298.92187,72.859375 298.92187,72.882812 C 298.91406,72.863281 298.90625,72.839844 298.90625,72.808594 L 298.92578,72.808594 z M 298.91797,72.914062 C 298.90234,73.117188 298.83594,73.304688 298.73047,73.472656 C 298.62109,73.464844 298.50391,73.460938 298.38672,73.460938 C 298.39844,73.40625 298.40625,73.351562 298.40625,73.296875 C 298.40625,73.097656 298.32812,72.917969 298.20312,72.78125 C 298.57812,72.816406 298.82422,72.871094 298.91797,72.914062 M 298.89062,81.457031 L 298.89062,81.457031 C 298.89062,81.457031 298.89062,81.457031 298.89062,81.457031 L 298.89062,81.457031 z M 298.41797,80.308594 C 298.19922,80.140625 297.92969,80.039062 297.63672,80.039062 C 297.34375,80.039062 297.07812,80.136719 296.86328,80.300781 C 296.70312,80.117188 296.60156,79.878906 296.60156,79.617188 C 296.60156,79.042969 297.06641,78.578125 297.64063,78.578125 C 298.21875,78.578125 298.68359,79.042969 298.68359,79.617188 C 298.68359,79.882812 298.58203,80.125 298.41797,80.308594 M 297.64063,78.25 C 297.17969,78.25 296.80469,77.878906 296.80469,77.414062 C 296.80469,76.953125 297.17969,76.578125 297.64063,76.578125 C 298.10547,76.578125 298.48047,76.953125 298.48047,77.414062 C 298.48047,77.878906 298.10547,78.25 297.64063,78.25 M 297.64453,73.871094 C 297.88672,73.871094 298.08203,74.066406 298.08203,74.308594 C 298.08203,74.550781 297.88672,74.75 297.64453,74.75 C 297.40234,74.75 297.20312,74.550781 297.20312,74.308594 C 297.20312,74.066406 297.40234,73.871094 297.64453,73.871094 M 297.35156,73.296875 C 297.35156,73.132812 297.48437,73 297.64453,73 C 297.80859,73 297.9375,73.132812 297.9375,73.296875 C 297.9375,73.457031 297.80859,73.589844 297.64453,73.589844 C 297.48437,73.589844 297.35156,73.457031 297.35156,73.296875 M 297.64063,74.996094 C 298.00391,74.996094 298.29687,75.289062 298.29687,75.648438 C 298.29687,76.007812 298.00391,76.300781 297.64063,76.300781 C 297.28125,76.300781 296.99219,76.007812 296.99219,75.648438 C 296.99219,75.289062 297.28125,74.996094 297.64063,74.996094 M 298.84375,72.355469 C 298.55469,72.28125 298.1875,72.253906 297.82812,72.246094 L 297.82812,71.800781 C 297.98828,71.777344 298.12891,71.730469 298.23828,71.660156 C 298.51562,71.804688 298.73437,72.054688 298.84375,72.355469 M 296.54688,69.65625 C 296.51953,69.625 296.46875,69.519531 296.46875,69.332031 C 296.46875,69.148438 296.51953,69.042969 296.54688,69.011719 L 297.31641,69.011719 L 297.31641,68.242188 C 297.34766,68.214844 297.45312,68.164062 297.64063,68.164062 C 297.82422,68.164062 297.92969,68.214844 297.96094,68.242188 L 297.96094,69.011719 L 298.73047,69.011719 C 298.75781,69.042969 298.8125,69.148438 298.8125,69.332031 C 298.8125,69.519531 298.75781,69.625 298.73047,69.65625 L 297.96094,69.65625 L 297.96094,71.21875 C 297.92969,71.246094 297.82422,71.296875 297.64063,71.296875 C 297.45312,71.296875 297.34766,71.246094 297.31641,71.21875 L 297.31641,69.65625 L 296.54688,69.65625 z M 297.03906,71.660156 C 297.13672,71.722656 297.26562,71.769531 297.41016,71.792969 L 297.41016,72.246094 C 296.97656,72.25 296.66406,72.28125 296.44141,72.328125 C 296.55469,72.039062 296.76562,71.800781 297.03906,71.660156 M 297.09766,72.769531 C 296.96484,72.90625 296.88281,73.089844 296.88281,73.296875 C 296.88281,73.351562 296.89062,73.40625 296.90234,73.457031 C 296.78125,73.460938 296.66016,73.464844 296.54297,73.46875 C 296.43359,73.296875 296.37109,73.097656 296.35547,72.886719 C 296.41406,72.855469 296.625,72.796875 297.09766,72.769531 M 295.01172,73.382812 C 295.17188,73.382812 295.30469,73.511719 295.30469,73.675781 C 295.30469,73.839844 295.17188,73.96875 295.01172,73.96875 C 294.85156,73.96875 294.71875,73.839844 294.71875,73.675781 C 294.71875,73.511719 294.85156,73.382812 295.01172,73.382812 M 293.33203,73.777344 C 293.53516,73.777344 293.69922,73.941406 293.69922,74.144531 C 293.69922,74.347656 293.53516,74.515625 293.33203,74.515625 C 293.12891,74.515625 292.96094,74.347656 292.96094,74.144531 C 292.96094,73.941406 293.12891,73.777344 293.33203,73.777344 M 291.85156,74.503906 C 292.10156,74.503906 292.30469,74.707031 292.30469,74.960938 C 292.30469,75.210938 292.10156,75.414062 291.85156,75.414062 C 291.59766,75.414062 291.39453,75.210938 291.39453,74.960938 C 291.39453,74.707031 291.59766,74.503906 291.85156,74.503906 M 290.45703,80.730469 C 290.08203,80.804688 289.77734,81.039062 289.59766,81.34375 C 289.14453,81.242188 288.80469,80.839844 288.80469,80.355469 C 288.80469,79.796875 289.26172,79.339844 289.82031,79.339844 C 290.38281,79.339844 290.83984,79.796875 290.83984,80.355469 C 290.83984,80.480469 290.8125,80.597656 290.76953,80.710938 C 290.66797,80.707031 290.5625,80.710938 290.45703,80.730469 M 290.48828,75.523438 C 290.83203,75.523438 291.11328,75.804688 291.11328,76.152344 C 291.11328,76.496094 290.83203,76.777344 290.48828,76.777344 C 290.14063,76.777344 289.85938,76.496094 289.85938,76.152344 C 289.85938,75.804688 290.14063,75.523438 290.48828,75.523438 M 289.70312,77.230469 C 290.12891,77.230469 290.47266,77.574219 290.47266,78 C 290.47266,78.425781 290.12891,78.773438 289.70312,78.773438 C 289.27734,78.773438 288.92969,78.425781 288.92969,78 C 288.92969,77.574219 289.27734,77.230469 289.70312,77.230469 M 288.48828,75.710938 C 288.66406,75.710938 288.80469,75.855469 288.80469,76.03125 C 288.80469,76.207031 288.66406,76.347656 288.48828,76.347656 C 288.3125,76.347656 288.17188,76.207031 288.17188,76.03125 C 288.17188,75.855469 288.3125,75.710938 288.48828,75.710938 M 286.73047,76.4375 C 286.94922,76.4375 287.12891,76.617188 287.12891,76.835938 C 287.12891,77.054688 286.94922,77.234375 286.73047,77.234375 C 286.50781,77.234375 286.33203,77.054688 286.33203,76.835938 C 286.33203,76.617188 286.50781,76.4375 286.73047,76.4375 M 285.08984,77.515625 C 285.35547,77.515625 285.57422,77.734375 285.57422,78 C 285.57422,78.265625 285.35547,78.484375 285.08984,78.484375 C 284.82422,78.484375 284.60547,78.265625 284.60547,78 C 284.60547,77.734375 284.82422,77.515625 285.08984,77.515625 M 283.05859,79.789062 C 283.05859,79.410156 283.36719,79.101562 283.74609,79.101562 C 284.125,79.101562 284.43359,79.410156 284.43359,79.789062 C 284.43359,80.167969 284.125,80.476562 283.74609,80.476562 C 283.36719,80.476562 283.05859,80.167969 283.05859,79.789062 M 283.00781,81.382812 C 283.51172,81.382812 283.92187,81.792969 283.92187,82.296875 C 283.92187,82.464844 283.87109,82.625 283.78906,82.761719 C 283.61328,82.753906 283.42969,82.777344 283.25391,82.847656 C 283.07812,82.914062 282.82422,83.015625 282.59766,83.105469 C 282.30078,82.953125 282.09766,82.648438 282.09766,82.296875 C 282.09766,81.792969 282.50781,81.382812 283.00781,81.382812 M 284.54297,85.878906 C 284.10547,86.046875 283.61328,85.832031 283.44141,85.394531 C 283.27344,84.957031 283.49219,84.464844 283.92578,84.296875 C 284.36328,84.125 284.85547,84.34375 285.02734,84.777344 C 285.0625,84.878906 285.08203,84.984375 285.08203,85.085938 C 285.08203,85.425781 284.87891,85.746094 284.54297,85.878906 M 289.81641,85.832031 C 289.14844,85.960938 288.49219,85.761719 288.01953,85.339844 C 287.84375,85.949219 287.40234,86.46875 286.76562,86.714844 C 286.125,86.964844 285.40625,86.679688 285.10547,86.074219 C 285.18359,86 285.25781,85.921875 285.31641,85.835938 C 285.55859,85.949219 285.83203,85.988281 286.10547,85.933594 C 286.13281,85.929688 286.16016,85.921875 286.1875,85.914062 C 286.19141,85.914062 286.19141,85.914062 286.19531,85.914062 C 286.23437,85.902344 286.27734,85.890625 286.32422,85.871094 C 286.98047,85.617188 287.30859,84.871094 287.05078,84.214844 C 286.8125,83.605469 286.30859,83.414062 285.80469,83.4375 C 285.57422,83.449219 285.34375,83.503906 285.13672,83.582031 C 285.06641,83.609375 285.00781,83.664062 284.94141,83.707031 C 284.92969,83.644531 284.91406,83.574219 284.91406,83.574219 C 284.78906,83.253906 284.54688,83.011719 284.25781,82.878906 C 284.32422,82.738281 284.36719,82.582031 284.38281,82.421875 L 284.42187,82.339844 C 284.375,81.757812 284.44531,81.101562 284.70703,80.433594 C 284.77734,80.328125 284.82812,80.207031 284.85938,80.082031 C 285.48828,78.800781 286.86719,77.515625 289.52734,76.667969 C 289.54297,76.703125 289.5625,76.738281 289.58594,76.773438 C 288.96094,76.832031 288.46484,77.355469 288.46484,78 C 288.46484,78.457031 288.71484,78.855469 289.08594,79.070312 C 288.64063,79.324219 288.33984,79.804688 288.33984,80.355469 C 288.33984,81.039062 288.80469,81.617188 289.43359,81.785156 C 289.41016,81.929688 289.41016,82.082031 289.44141,82.234375 C 289.44141,82.234375 289.46484,82.304688 289.48828,82.363281 C 289.41016,82.363281 289.32812,82.347656 289.25391,82.363281 C 288.55859,82.5 288.10156,83.175781 288.24219,83.867188 C 288.375,84.5625 289.05078,85.015625 289.74609,84.878906 C 290.26953,84.777344 290.65625,84.359375 290.75,83.859375 C 290.78125,83.957031 290.84375,84.214844 290.85547,84.28125 C 290.99609,84.996094 290.53125,85.691406 289.81641,85.832031 M 290.07031,83.113281 C 289.98047,82.65625 290.28125,82.214844 290.73828,82.125 C 291.19531,82.035156 291.63672,82.332031 291.72656,82.789062 C 291.82031,83.246094 291.51953,83.691406 291.0625,83.78125 C 290.60547,83.867188 290.16016,83.570312 290.07031,83.113281 M 296.02734,84.925781 C 295.34375,84.925781 294.78516,84.589844 294.40234,84.089844 C 294.12109,84.65625 293.63281,85.085938 292.96484,85.214844 C 292.25,85.355469 291.55469,84.886719 291.41797,84.171875 C 291.40234,84.105469 291.36719,83.84375 291.35547,83.742188 C 291.63281,84.167969 292.14453,84.410156 292.67188,84.304688 C 293.36719,84.167969 293.82031,83.496094 293.68359,82.800781 C 293.54688,82.109375 292.87109,81.65625 292.17969,81.789062 C 292.10547,81.804688 292.03516,81.847656 291.96484,81.875 C 291.96484,81.8125 291.96094,81.742188 291.96094,81.742188 C 291.89844,81.429688 291.72656,81.164062 291.49219,80.980469 L 291.67969,80.652344 C 290.93359,79.105469 290.39062,74.707031 296.72266,74.347656 C 296.75,74.363281 296.77344,74.378906 296.80078,74.390625 C 296.02734,76.328125 295.94531,80.660156 295.94531,80.660156 L 296.40234,80.957031 C 296.36719,81.074219 296.34766,81.195312 296.34766,81.320312 C 296.34766,81.320312 296.35938,81.394531 296.37109,81.457031 C 296.29297,81.441406 296.21484,81.414062 296.13672,81.414062 C 295.42969,81.414062 294.85547,81.988281 294.85547,82.695312 C 294.85547,83.398438 295.42969,83.972656 296.13672,83.972656 C 296.67578,83.972656 297.13281,83.640625 297.32422,83.167969 C 297.33203,83.269531 297.34375,83.535156 297.34375,83.605469 C 297.34375,84.332031 296.75391,84.925781 296.02734,84.925781 M 296.80078,82.300781 C 296.80078,81.835938 297.17188,81.460938 297.63672,81.457031 L 297.65234,81.457031 C 298.11328,81.460938 298.48828,81.835938 298.48828,82.300781 C 298.48828,82.765625 298.10938,83.144531 297.64453,83.144531 C 297.17578,83.144531 296.80078,82.765625 296.80078,82.300781 M 303.80469,84.171875 C 303.66406,84.886719 302.96875,85.355469 302.25391,85.214844 C 301.59766,85.085938 301.11719,84.667969 300.83203,84.113281 C 300.45312,84.605469 299.90625,84.925781 299.23437,84.925781 C 298.50781,84.925781 297.91406,84.332031 297.91406,83.605469 C 297.91406,83.535156 297.92969,83.269531 297.9375,83.167969 C 298.125,83.640625 298.58594,83.972656 299.12109,83.972656 C 299.82812,83.972656 300.40234,83.398438 300.40234,82.695312 C 300.40234,81.988281 299.82812,81.414062 299.12109,81.414062 C 299.04688,81.414062 298.96875,81.441406 298.89453,81.457031 C 298.90625,81.394531 298.91406,81.320312 298.91406,81.320312 C 298.91406,81.210938 298.89844,81.101562 298.87109,80.996094 L 299.33203,80.714844 C 299.33203,80.714844 299.28125,76.316406 298.50391,74.375 C 298.51953,74.367188 298.53516,74.359375 298.54688,74.347656 C 304.83984,74.722656 304.29687,79.109375 303.55078,80.652344 L 303.73828,80.980469 C 303.73047,80.984375 303.72266,80.992188 303.71484,81 C 303.67969,81.03125 303.64453,81.0625 303.61328,81.09375 C 303.58984,81.117188 303.56641,81.144531 303.54297,81.171875 C 303.53125,81.1875 303.51953,81.203125 303.50781,81.21875 C 303.46875,81.269531 303.43359,81.320312 303.40625,81.375 C 303.40234,81.382812 303.39844,81.386719 303.39453,81.394531 C 303.35938,81.460938 303.32812,81.535156 303.30469,81.609375 C 303.30469,81.613281 303.30469,81.617188 303.30078,81.621094 C 303.28906,81.664062 303.27344,81.703125 303.26562,81.742188 C 303.26562,81.742188 303.26172,81.816406 303.26172,81.878906 C 303.1875,81.847656 303.11719,81.804688 303.04297,81.789062 C 302.34766,81.65625 301.67188,82.109375 301.53906,82.800781 C 301.40234,83.496094 301.85547,84.167969 302.55078,84.304688 C 303.07812,84.410156 303.58984,84.167969 303.86719,83.742188 C 303.85547,83.84375 303.82031,84.105469 303.80469,84.171875 M 303.55859,82.789062 C 303.64063,82.351562 304.05078,82.066406 304.48828,82.117188 L 304.60547,82.140625 C 305.02734,82.257812 305.30078,82.675781 305.21484,83.113281 C 305.125,83.570312 304.67969,83.867188 304.22266,83.78125 C 303.76562,83.691406 303.46875,83.246094 303.55859,82.789062 M 308.45312,86.714844 C 307.82031,86.46875 307.375,85.949219 307.20312,85.339844 C 306.72656,85.761719 306.07031,85.960938 305.40625,85.832031 C 304.69141,85.691406 304.22266,84.996094 304.36328,84.28125 C 304.37891,84.214844 304.44141,83.957031 304.46875,83.859375 C 304.5625,84.359375 304.94922,84.777344 305.47656,84.878906 C 306.16797,85.015625 306.84375,84.5625 306.98047,83.867188 C 307.11719,83.175781 306.66406,82.5 305.96875,82.363281 C 305.89453,82.347656 305.81641,82.363281 305.73828,82.363281 C 305.76172,82.304688 305.78516,82.234375 305.78516,82.234375 C 305.81641,82.082031 305.81641,81.933594 305.79297,81.789062 C 306.42578,81.617188 306.89453,81.042969 306.89453,80.355469 C 306.89453,79.804688 306.58984,79.324219 306.14453,79.070312 C 306.51562,78.855469 306.76562,78.457031 306.76562,78 C 306.76562,77.355469 306.27344,76.832031 305.64453,76.773438 C 305.66797,76.738281 305.6875,76.703125 305.70703,76.667969 C 308.36328,77.511719 309.74219,78.800781 310.37109,80.082031 C 310.40625,80.207031 310.45703,80.328125 310.52734,80.433594 C 310.78516,81.101562 310.85547,81.757812 310.8125,82.339844 L 310.84766,82.421875 C 310.86328,82.582031 310.90625,82.734375 310.97266,82.875 C 310.96094,82.882812 310.95312,82.890625 310.94141,82.894531 C 310.89062,82.917969 310.84375,82.949219 310.79687,82.980469 C 310.76953,82.996094 310.74609,83.015625 310.72266,83.035156 C 310.69141,83.058594 310.66406,83.082031 310.63281,83.109375 C 310.59766,83.144531 310.56641,83.175781 310.53516,83.214844 C 310.51562,83.234375 310.5,83.253906 310.48437,83.277344 C 310.44922,83.324219 310.41406,83.375 310.38672,83.429688 C 310.375,83.449219 310.36719,83.464844 310.35938,83.484375 C 310.34375,83.515625 310.32422,83.542969 310.3125,83.574219 C 310.3125,83.574219 310.29687,83.644531 310.28516,83.707031 C 310.21875,83.664062 310.16016,83.609375 310.08984,83.582031 C 309.83984,83.488281 309.55859,83.425781 309.28516,83.4375 C 308.82812,83.453125 308.39062,83.660156 308.17578,84.214844 C 307.91797,84.875 308.24609,85.617188 308.90625,85.875 C 309.26172,86.011719 309.64063,85.976562 309.95312,85.8125 C 310.00781,85.890625 310.06641,85.964844 310.13281,86.03125 C 309.84766,86.664062 309.10938,86.972656 308.45312,86.714844 M 311.84375,85.394531 C 311.67188,85.832031 311.17969,86.046875 310.74609,85.878906 C 310.53125,85.796875 310.36719,85.636719 310.27344,85.429688 C 310.22656,85.320312 310.20312,85.203125 310.20312,85.085938 C 310.20312,84.984375 310.22266,84.878906 310.26172,84.777344 C 310.42969,84.34375 310.92578,84.125 311.35938,84.296875 C 311.79687,84.464844 312.01172,84.957031 311.84375,85.394531"
         id="path396"
         style="fill:#ffffff;fill-opacity:1;fill-rule:nonzero;stroke:none" />
      <path
         d="M 307.125,89.671875 C 304.30469,88.628906 301.33984,88.070312 298.30469,88.007812 L 297.66016,88.375 L 297.01953,88.011719 C 293.95703,88.078125 290.97266,88.652344 288.13281,89.71875 L 287.72656,90.199219 L 286.47656,89.503906 L 286.91406,88.34375 L 286.97656,88.164062 L 287.53906,88.257812 C 290.60156,87.082031 293.82422,86.457031 297.12891,86.398438 L 297.54688,86.164062 L 297.66016,86.097656 L 298.19141,86.398438 C 301.50781,86.449219 304.74609,87.070312 307.82422,88.246094 L 308.13281,88.195312 L 308.32031,88.164062 L 308.82031,89.503906 L 307.57031,90.199219 L 307.125,89.671875 z M 287.04688,89.296875 C 287.22266,89.394531 287.44922,89.519531 287.62109,89.613281 C 287.75781,89.453125 288.02734,89.132812 288.26953,88.84375 C 287.89453,88.78125 287.48437,88.714844 287.27734,88.679688 C 287.20703,88.863281 287.11719,89.105469 287.04688,89.296875 M 292.89062,88.117188 C 293.16797,88.058594 293.34766,87.789062 293.29297,87.515625 C 293.23437,87.238281 292.96484,87.058594 292.6875,87.117188 L 291.68359,87.324219 C 291.40625,87.378906 291.22656,87.652344 291.28516,87.925781 C 291.33984,88.203125 291.61328,88.378906 291.88672,88.324219 L 292.89062,88.117188 z M 296.60547,87.238281 C 296.98437,87.453125 297.51172,87.753906 297.66016,87.835938 C 297.80859,87.753906 298.33984,87.453125 298.71484,87.238281 C 298.33984,87.023438 297.80859,86.71875 297.66016,86.636719 C 297.51172,86.71875 296.98437,87.023438 296.60547,87.238281 M 307.02734,88.84375 C 307.27344,89.132812 307.54297,89.453125 307.67578,89.613281 C 307.84766,89.519531 308.07812,89.394531 308.25391,89.296875 C 308.18359,89.105469 308.08984,88.863281 308.02344,88.679688 C 307.81641,88.714844 307.40234,88.78125 307.02734,88.84375 M 303.41016,88.324219 C 303.6875,88.378906 303.95703,88.203125 304.01172,87.925781 C 304.07031,87.652344 303.89453,87.378906 303.61719,87.324219 L 302.60938,87.117188 C 302.33594,87.058594 302.06641,87.238281 302.00781,87.515625 C 301.95312,87.789062 302.12891,88.058594 302.40625,88.117188 L 303.41016,88.324219 z"
         id="path398"
         style="fill:#ffffff;fill-opacity:1;fill-rule:nonzero;stroke:none" />
      <path
         d="M 270.86328,94.925781 C 270.88672,94.6875 270.86328,94.421875 270.77734,94.15625 C 270.56641,93.476562 269.93359,92.964844 269.57812,93.074219 C 269.53516,93.089844 269.46875,92.96875 269.42188,92.984375 C 269.375,92.996094 269.39062,93.132812 269.34766,93.148437 C 268.99219,93.257812 268.76562,94.039062 268.97656,94.71875 C 269.0625,94.988281 269.19141,95.21875 269.34766,95.398437"
         id="path400"
         style="fill:none;stroke:#ffffff;stroke-width:0.66299999;stroke-linecap:butt;stroke-linejoin:miter;stroke-miterlimit:4;stroke-opacity:1" />
      <path
         d="M 270.43359,96.203125 C 271.12109,95.988281 271.55078,95.398438 271.35547,94.777344 C 271.28516,94.550781 271.09375,94.539063 271.09375,94.539063 C 271.15234,94.71875 270.74609,95.121094 270.15234,95.308594 C 269.55859,95.496094 268.99609,95.394531 268.94141,95.210938 C 268.94141,95.210938 268.78906,95.332031 268.86328,95.5625 C 269.05469,96.179688 269.74609,96.417969 270.43359,96.203125 z"
         id="path402"
         style="fill:none;stroke:#ffffff;stroke-width:0.66299999;stroke-linecap:butt;stroke-linejoin:round;stroke-miterlimit:4;stroke-opacity:1" />
      <path
         d="M 270.62891,96.160156 C 270.66797,96.277344 270.6875,96.304687 270.76562,96.414062 C 270.84766,96.523437 270.94141,96.613281 271.04297,96.683594"
         id="path404"
         style="fill:none;stroke:#ffffff;stroke-width:0.66299999;stroke-linecap:round;stroke-linejoin:miter;stroke-miterlimit:4;stroke-opacity:1" />
      <path
         d="M 273.99609,97.167969 C 274.21094,97.070312 274.47266,97.007813 274.75,97 C 275.46484,96.988281 276.15234,97.421875 276.16016,97.792969 C 276.16016,97.839844 276.29688,97.863281 276.29688,97.914063 C 276.29688,97.960938 276.16406,97.988281 276.16406,98.035156 C 276.17578,98.40625 275.50781,98.875 274.79297,98.890625 C 274.51562,98.898438 274.25391,98.847656 274.03125,98.757813"
         id="path406"
         style="fill:none;stroke:#ffffff;stroke-width:0.66299999;stroke-linecap:butt;stroke-linejoin:miter;stroke-miterlimit:4;stroke-opacity:1" />
      <path
         d="M 272.92188,97.984375 C 272.90625,97.265625 273.32812,96.667969 273.97656,96.65625 C 274.21484,96.648438 274.28906,96.828125 274.28906,96.828125 C 274.09766,96.828125 273.84375,97.339844 273.85938,97.964844 C 273.87109,98.585938 274.14844,99.089844 274.33984,99.082031 C 274.33984,99.082031 274.27344,99.261719 274.03125,99.269531 C 273.38672,99.285156 272.9375,98.707031 272.92188,97.984375 z"
         id="path408"
         style="fill:none;stroke:#ffffff;stroke-width:0.66299999;stroke-linecap:butt;stroke-linejoin:round;stroke-miterlimit:4;stroke-opacity:1" />
      <path
         d="M 272.90234,97.785156 C 272.77344,97.785156 272.74609,97.777344 272.61719,97.738281 C 272.48438,97.695312 272.37109,97.636719 272.26953,97.5625"
         id="path410"
         style="fill:none;stroke:#ffffff;stroke-width:0.66299999;stroke-linecap:round;stroke-linejoin:miter;stroke-miterlimit:4;stroke-opacity:1" />
      <path
         d="M 268.94141,110.67969 C 269.07812,110.48438 269.27344,110.30469 269.51562,110.15625 C 270.125,109.79297 270.9375,109.82812 271.13281,110.14453 C 271.15234,110.1875 271.28125,110.13672 271.30859,110.18359 C 271.33203,110.22266 271.23047,110.3125 271.25391,110.35547 C 271.44922,110.67188 271.09766,111.41016 270.48828,111.77734 C 270.24609,111.92188 269.99609,112.00781 269.76172,112.03906"
         id="path412"
         style="fill:none;stroke:#ffffff;stroke-width:0.66299999;stroke-linecap:butt;stroke-linejoin:miter;stroke-miterlimit:4;stroke-opacity:1" />
      <path
         d="M 268.41406,111.91797 C 268.04297,111.30469 268.11328,110.57422 268.66797,110.24219 C 268.875,110.11719 269.02344,110.23438 269.02344,110.23438 C 268.85938,110.33203 268.89453,110.90234 269.21484,111.4375 C 269.53906,111.96875 270.02734,112.26953 270.1875,112.16406 C 270.1875,112.16406 270.22266,112.35547 270.01562,112.48047 C 269.46094,112.81641 268.78516,112.53906 268.41406,111.91797 z"
         id="path414"
         style="fill:none;stroke:#ffffff;stroke-width:0.66299999;stroke-linecap:butt;stroke-linejoin:round;stroke-miterlimit:4;stroke-opacity:1" />
      <path
         d="M 268.29688,111.75781 C 268.1875,111.82031 268.15625,111.82812 268.02344,111.85547 C 267.89062,111.88672 267.76172,111.89062 267.63672,111.875"
         id="path416"
         style="fill:none;stroke:#ffffff;stroke-width:0.66299999;stroke-linecap:round;stroke-linejoin:miter;stroke-miterlimit:4;stroke-opacity:1" />
      <path
         d="M 265.24609,110.39062 C 265.15234,110.17188 265,109.95312 264.79688,109.76172 C 264.27734,109.27344 263.47266,109.14062 263.21875,109.40625 C 263.1875,109.44141 263.07031,109.37109 263.03906,109.40625 C 263.00391,109.44141 263.08594,109.55078 263.05078,109.58594 C 262.79688,109.85547 262.98438,110.64844 263.50391,111.13672 C 263.70703,111.32812 263.9375,111.46875 264.16016,111.54688"
         id="path418"
         style="fill:none;stroke:#ffffff;stroke-width:0.66299999;stroke-linecap:butt;stroke-linejoin:miter;stroke-miterlimit:4;stroke-opacity:1" />
      <path
         d="M 265.5,111.71484 C 265.99609,111.19141 266.07812,110.46484 265.60547,110.01953 C 265.42969,109.85547 265.25781,109.9375 265.25781,109.9375 C 265.39844,110.06641 265.24609,110.61719 264.82031,111.07422 C 264.39062,111.52734 263.85156,111.71875 263.71484,111.58203 C 263.71484,111.58203 263.64062,111.76172 263.82031,111.92578 C 264.28906,112.37109 265.00781,112.23828 265.5,111.71484 z"
         id="path420"
         style="fill:none;stroke:#ffffff;stroke-width:0.66299999;stroke-linecap:butt;stroke-linejoin:round;stroke-miterlimit:4;stroke-opacity:1" />
      <path
         d="M 265.64844,111.57812 C 265.74609,111.66406 265.76953,111.67969 265.89453,111.73438 C 266.01953,111.78906 266.14453,111.82422 266.26953,111.83203"
         id="path422"
         style="fill:none;stroke:#ffffff;stroke-width:0.66299999;stroke-linecap:round;stroke-linejoin:miter;stroke-miterlimit:4;stroke-opacity:1" />
      <path
         d="M 271.19531,125.05078 C 271.22266,124.8125 271.30469,124.55859 271.44531,124.31641 C 271.80469,123.69922 272.53125,123.33984 272.85547,123.52344 C 272.89453,123.54688 272.98438,123.44531 273.02734,123.46875 C 273.07031,123.49219 273.02344,123.62109 273.06641,123.64453 C 273.38672,123.82812 273.4375,124.64453 273.08203,125.26172 C 272.94141,125.50391 272.76172,125.70312 272.57422,125.84375"
         id="path424"
         style="fill:none;stroke:#ffffff;stroke-width:0.66299999;stroke-linecap:butt;stroke-linejoin:miter;stroke-miterlimit:4;stroke-opacity:1" />
      <path
         d="M 271.33594,126.39062 C 270.71094,126.03125 270.42188,125.35938 270.74609,124.80078 C 270.86719,124.58984 271.05469,124.62109 271.05469,124.62109 C 270.95703,124.78516 271.26562,125.26562 271.80469,125.58203 C 272.34375,125.89062 272.91797,125.91406 273.00781,125.74609 C 273.00781,125.74609 273.12891,125.89844 273.00781,126.10547 C 272.6875,126.66797 271.96094,126.75 271.33594,126.39062 z"
         id="path426"
         style="fill:none;stroke:#ffffff;stroke-width:0.66299999;stroke-linecap:butt;stroke-linejoin:round;stroke-miterlimit:4;stroke-opacity:1" />
      <path
         d="M 271.15234,126.30469 C 271.08984,126.41406 271.06641,126.43359 270.96484,126.52344 C 270.85938,126.61328 270.75,126.67969 270.63281,126.72656"
         id="path428"
         style="fill:none;stroke:#ffffff;stroke-width:0.66299999;stroke-linecap:round;stroke-linejoin:miter;stroke-miterlimit:4;stroke-opacity:1" />
      <path
         d="M 267.80859,126.53516 C 267.61719,126.39062 267.37891,126.27344 267.10547,126.20312 C 266.41406,126.03125 265.64844,126.30469 265.55859,126.66406 C 265.54688,126.71094 265.41016,126.70312 265.39844,126.75 C 265.38672,126.79688 265.51172,126.85547 265.5,126.90234 C 265.40625,127.26172 265.95703,127.86328 266.64844,128.03516 C 266.91797,128.10547 267.1875,128.11328 267.42188,128.07422"
         id="path430"
         style="fill:none;stroke:#ffffff;stroke-width:0.66299999;stroke-linecap:butt;stroke-linejoin:miter;stroke-miterlimit:4;stroke-opacity:1" />
      <path
         d="M 268.67188,127.56641 C 268.84766,126.86719 268.56641,126.19531 267.94141,126.03516 C 267.70703,125.97656 267.59766,126.13672 267.59766,126.13672 C 267.78125,126.17969 267.91406,126.73438 267.76562,127.33984 C 267.61328,127.94531 267.23438,128.37109 267.04688,128.32031 C 267.04688,128.32031 267.07422,128.51562 267.30859,128.57422 C 267.93359,128.73047 268.49609,128.26562 268.67188,127.56641 z"
         id="path432"
         style="fill:none;stroke:#ffffff;stroke-width:0.66299999;stroke-linecap:butt;stroke-linejoin:round;stroke-miterlimit:4;stroke-opacity:1" />
      <path
         d="M 268.73828,127.375 C 268.86328,127.40625 268.89062,127.40234 269.02734,127.39453 C 269.16406,127.37891 269.28906,127.34766 269.40234,127.29688"
         id="path434"
         style="fill:none;stroke:#ffffff;stroke-width:0.66299999;stroke-linecap:round;stroke-linejoin:miter;stroke-miterlimit:4;stroke-opacity:1" />
      <path
         d="M 280.1875,136.1875 C 280.09766,135.96875 280.04297,135.70703 280.04688,135.42578 C 280.05859,134.71484 280.51953,134.04297 280.89062,134.04688 C 280.9375,134.04688 280.96484,133.91406 281.01562,133.91406 C 281.0625,133.91406 281.08594,134.05078 281.13281,134.05078 C 281.50391,134.05469 281.94531,134.73828 281.9375,135.45312 C 281.93359,135.73047 281.875,135.99219 281.77734,136.20703"
         id="path436"
         style="fill:none;stroke:#ffffff;stroke-width:0.66299999;stroke-linecap:butt;stroke-linejoin:miter;stroke-miterlimit:4;stroke-opacity:1" />
      <path
         d="M 280.96484,137.28906 C 280.24609,137.28125 279.66406,136.83594 279.67188,136.1875 C 279.67578,135.94922 279.85547,135.88281 279.85547,135.88281 C 279.85156,136.07031 280.35547,136.34375 280.97656,136.35547 C 281.60156,136.35938 282.11328,136.10156 282.10938,135.91016 C 282.10938,135.91016 282.28906,135.98438 282.28516,136.22656 C 282.27734,136.875 281.6875,137.30078 280.96484,137.28906 z"
         id="path438"
         style="fill:none;stroke:#ffffff;stroke-width:0.66299999;stroke-linecap:butt;stroke-linejoin:round;stroke-miterlimit:4;stroke-opacity:1" />
      <path
         d="M 280.76562,137.30469 C 280.76172,137.42969 280.75,137.45703 280.70703,137.58594 C 280.66016,137.71484 280.59375,137.82812 280.51953,137.92578"
         id="path440"
         style="fill:none;stroke:#ffffff;stroke-width:0.66299999;stroke-linecap:round;stroke-linejoin:miter;stroke-miterlimit:4;stroke-opacity:1" />
      <path
         d="M 278.03125,139.31641 C 277.79297,139.28125 277.52734,139.29688 277.25391,139.37109 C 276.57031,139.55859 276.03516,140.17188 276.12891,140.53125 C 276.14453,140.57422 276.01953,140.63672 276.03516,140.68359 C 276.04688,140.73047 276.18359,140.71875 276.19531,140.76562 C 276.29297,141.125 277.06641,141.37891 277.75391,141.19141 C 278.02344,141.11719 278.25781,141 278.44531,140.84766"
         id="path442"
         style="fill:none;stroke:#ffffff;stroke-width:0.66299999;stroke-linecap:butt;stroke-linejoin:miter;stroke-miterlimit:4;stroke-opacity:1" />
      <path
         d="M 279.28906,139.79297 C 279.10156,139.09766 278.52734,138.64844 277.90234,138.81641 C 277.66797,138.87891 277.64844,139.07031 277.64844,139.07031 C 277.83203,139.01562 278.22266,139.4375 278.38672,140.03906 C 278.55078,140.64062 278.42969,141.19922 278.24219,141.24609 C 278.24219,141.24609 278.35547,141.40234 278.58984,141.33984 C 279.21484,141.16797 279.48047,140.48828 279.28906,139.79297 z"
         id="path444"
         style="fill:none;stroke:#ffffff;stroke-width:0.66299999;stroke-linecap:butt;stroke-linejoin:round;stroke-miterlimit:4;stroke-opacity:1" />
      <path
         d="M 279.25391,139.59375 C 279.375,139.55859 279.39844,139.54297 279.51172,139.46875 C 279.625,139.39062 279.71875,139.30078 279.79297,139.19922"
         id="path446"
         style="fill:none;stroke:#ffffff;stroke-width:0.66299999;stroke-linecap:round;stroke-linejoin:miter;stroke-miterlimit:4;stroke-opacity:1" />
      <path
         d="M 324.07812,125.03906 C 324.05078,124.80078 323.96875,124.54688 323.82812,124.30469 C 323.47266,123.6875 322.74219,123.32812 322.41797,123.51172 C 322.37891,123.53516 322.28906,123.43359 322.24609,123.45703 C 322.20703,123.48438 322.25,123.60938 322.21094,123.63281 C 321.88672,123.82031 321.83594,124.63281 322.19531,125.25 C 322.33203,125.49219 322.51172,125.69141 322.70312,125.83203"
         id="path448"
         style="fill:none;stroke:#ffffff;stroke-width:0.66299999;stroke-linecap:butt;stroke-linejoin:miter;stroke-miterlimit:4;stroke-opacity:1" />
      <path
         d="M 323.9375,126.37891 C 324.5625,126.01953 324.85156,125.34766 324.52734,124.78906 C 324.41016,124.58203 324.21875,124.60938 324.21875,124.60938 C 324.31641,124.77344 324.00781,125.25781 323.46875,125.57031 C 322.92969,125.87891 322.35938,125.90625 322.26562,125.73438 C 322.26562,125.73438 322.14453,125.88672 322.26562,126.09766 C 322.58984,126.66016 323.3125,126.74219 323.9375,126.37891 z"
         id="path450"
         style="fill:none;stroke:#ffffff;stroke-width:0.66299999;stroke-linecap:butt;stroke-linejoin:round;stroke-miterlimit:4;stroke-opacity:1" />
      <path
         d="M 324.12109,126.29297 C 324.1875,126.40234 324.20703,126.42188 324.30859,126.51172 C 324.41406,126.60156 324.52344,126.66797 324.64062,126.71875"
         id="path452"
         style="fill:none;stroke:#ffffff;stroke-width:0.66299999;stroke-linecap:round;stroke-linejoin:miter;stroke-miterlimit:4;stroke-opacity:1" />
      <path
         d="M 315.07812,136.1875 C 315.17188,135.96875 315.22266,135.70703 315.21875,135.42578 C 315.21094,134.71484 314.75,134.04297 314.37891,134.04688 C 314.33203,134.04688 314.30469,133.91406 314.25391,133.91406 C 314.20703,133.91406 314.18359,134.05078 314.13281,134.05078 C 313.76172,134.05469 313.32031,134.73828 313.33203,135.45312 C 313.33594,135.73047 313.39453,135.99219 313.49219,136.20703"
         id="path454"
         style="fill:none;stroke:#ffffff;stroke-width:0.66299999;stroke-linecap:butt;stroke-linejoin:miter;stroke-miterlimit:4;stroke-opacity:1" />
      <path
         d="M 314.30078,137.28906 C 315.02344,137.28125 315.60156,136.83594 315.59375,136.1875 C 315.58984,135.94922 315.41016,135.88281 315.41016,135.88281 C 315.41797,136.07031 314.91406,136.34375 314.28906,136.35547 C 313.66797,136.35938 313.15625,136.10156 313.15625,135.91016 C 313.15625,135.91016 312.98047,135.98438 312.98047,136.22656 C 312.98828,136.875 313.58203,137.30078 314.30078,137.28906 z"
         id="path456"
         style="fill:none;stroke:#ffffff;stroke-width:0.66299999;stroke-linecap:butt;stroke-linejoin:round;stroke-miterlimit:4;stroke-opacity:1" />
      <path
         d="M 314.50391,137.30469 C 314.50781,137.42969 314.51562,137.45703 314.5625,137.58594 C 314.60938,137.71484 314.67188,137.82812 314.75,137.92578"
         id="path458"
         style="fill:none;stroke:#ffffff;stroke-width:0.66299999;stroke-linecap:round;stroke-linejoin:miter;stroke-miterlimit:4;stroke-opacity:1" />
      <path
         d="M 317.26172,139.32812 C 317.49609,139.29688 317.76172,139.3125 318.03516,139.38281 C 318.72266,139.57422 319.25391,140.1875 319.16016,140.54297 C 319.14453,140.58984 319.26953,140.64844 319.25391,140.69922 C 319.24219,140.74219 319.10547,140.73438 319.09375,140.77734 C 318.99609,141.13672 318.22266,141.39453 317.53516,141.20703 C 317.26562,141.13281 317.03125,141.01172 316.84375,140.86328"
         id="path460"
         style="fill:none;stroke:#ffffff;stroke-width:0.66299999;stroke-linecap:butt;stroke-linejoin:miter;stroke-miterlimit:4;stroke-opacity:1" />
      <path
         d="M 316,139.80469 C 316.1875,139.11328 316.76172,138.66016 317.38672,138.83203 C 317.62109,138.89453 317.64062,139.08594 317.64062,139.08594 C 317.45703,139.03125 317.06641,139.45312 316.90234,140.05469 C 316.73828,140.65234 316.86328,141.21484 317.04688,141.25781 C 317.04688,141.25781 316.93359,141.41406 316.69922,141.35156 C 316.07422,141.18359 315.80859,140.50391 316,139.80469 z"
         id="path462"
         style="fill:none;stroke:#ffffff;stroke-width:0.66299999;stroke-linecap:butt;stroke-linejoin:round;stroke-miterlimit:4;stroke-opacity:1" />
      <path
         d="M 316.03516,139.60938 C 315.91406,139.57422 315.88672,139.55859 315.77734,139.48047 C 315.66406,139.40234 315.57031,139.3125 315.49609,139.21484"
         id="path464"
         style="fill:none;stroke:#ffffff;stroke-width:0.66299999;stroke-linecap:round;stroke-linejoin:miter;stroke-miterlimit:4;stroke-opacity:1" />
      <path
         d="M 327.48047,126.52344 C 327.67188,126.37891 327.91016,126.26172 328.18359,126.19141 C 328.875,126.01953 329.64062,126.29297 329.73438,126.65234 C 329.74219,126.69922 329.87891,126.69141 329.89062,126.73828 C 329.90234,126.78516 329.77734,126.84375 329.78906,126.89062 C 329.88281,127.25 329.33203,127.85156 328.64062,128.02344 C 328.37109,128.09375 328.10156,128.10156 327.86719,128.0625"
         id="path466"
         style="fill:none;stroke:#ffffff;stroke-width:0.66299999;stroke-linecap:butt;stroke-linejoin:miter;stroke-miterlimit:4;stroke-opacity:1" />
      <path
         d="M 326.61719,127.55469 C 326.44141,126.85547 326.72266,126.18359 327.34766,126.02344 C 327.58203,125.96484 327.69531,126.125 327.69531,126.125 C 327.50781,126.16797 327.375,126.72266 327.52344,127.32812 C 327.67578,127.93359 328.05469,128.35938 328.24219,128.30859 C 328.24219,128.30859 328.21484,128.50391 327.98047,128.5625 C 327.35547,128.71875 326.79297,128.25391 326.61719,127.55469 z"
         id="path468"
         style="fill:none;stroke:#ffffff;stroke-width:0.66299999;stroke-linecap:butt;stroke-linejoin:round;stroke-miterlimit:4;stroke-opacity:1" />
      <path
         d="M 326.55078,127.36328 C 326.42969,127.39453 326.39844,127.39062 326.26172,127.38281 C 326.125,127.37109 326,127.33594 325.88672,127.28516"
         id="path470"
         style="fill:none;stroke:#ffffff;stroke-width:0.66299999;stroke-linecap:round;stroke-linejoin:miter;stroke-miterlimit:4;stroke-opacity:1" />
      <path
         d="M 321.27734,97.167969 C 321.05859,97.070312 320.80078,97.007813 320.51953,97 C 319.80859,96.988281 319.12109,97.421875 319.10938,97.792969 C 319.10938,97.839844 318.97656,97.863281 318.97656,97.914063 C 318.97266,97.960938 319.10547,97.988281 319.10547,98.035156 C 319.09766,98.40625 319.76562,98.875 320.47656,98.890625 C 320.75781,98.898438 321.01953,98.847656 321.23828,98.757813"
         id="path472"
         style="fill:none;stroke:#ffffff;stroke-width:0.66299999;stroke-linecap:butt;stroke-linejoin:miter;stroke-miterlimit:4;stroke-opacity:1" />
      <path
         d="M 322.34766,97.984375 C 322.36719,97.265625 321.94531,96.667969 321.29688,96.65625 C 321.05469,96.648438 320.98047,96.828125 320.98047,96.828125 C 321.17188,96.828125 321.42578,97.339844 321.41406,97.964844 C 321.39844,98.585938 321.12109,99.089844 320.92969,99.082031 C 320.92969,99.082031 320.99609,99.261719 321.23828,99.269531 C 321.88672,99.285156 322.33203,98.707031 322.34766,97.984375 z"
         id="path474"
         style="fill:none;stroke:#ffffff;stroke-width:0.66299999;stroke-linecap:butt;stroke-linejoin:round;stroke-miterlimit:4;stroke-opacity:1" />
      <path
         d="M 322.37109,97.785156 C 322.49609,97.785156 322.52734,97.777344 322.65625,97.738281 C 322.78516,97.695312 322.90234,97.636719 323,97.5625"
         id="path476"
         style="fill:none;stroke:#ffffff;stroke-width:0.66299999;stroke-linecap:round;stroke-linejoin:miter;stroke-miterlimit:4;stroke-opacity:1" />
      <path
         d="M 326.35547,110.69141 C 326.21875,110.5 326.02344,110.31641 325.78125,110.17188 C 325.17188,109.80469 324.35547,109.84375 324.16406,110.16016 C 324.14062,110.19922 324.01562,110.15234 323.98828,110.19531 C 323.96484,110.23828 324.06641,110.32812 324.04297,110.36719 C 323.84766,110.68359 324.19922,111.42188 324.80859,111.78906 C 325.04688,111.93359 325.30078,112.02344 325.53516,112.05469"
         id="path478"
         style="fill:none;stroke:#ffffff;stroke-width:0.66299999;stroke-linecap:butt;stroke-linejoin:miter;stroke-miterlimit:4;stroke-opacity:1" />
      <path
         d="M 326.88281,111.93359 C 327.25391,111.31641 327.18359,110.58984 326.62891,110.25391 C 326.42188,110.12891 326.26953,110.25 326.26953,110.25 C 326.4375,110.34375 326.39844,110.91797 326.08203,111.45312 C 325.75781,111.98438 325.26953,112.28125 325.10547,112.17969 C 325.10547,112.17969 325.07422,112.37109 325.28125,112.49609 C 325.83594,112.83203 326.51172,112.55078 326.88281,111.93359 z"
         id="path480"
         style="fill:none;stroke:#ffffff;stroke-width:0.66299999;stroke-linecap:butt;stroke-linejoin:round;stroke-miterlimit:4;stroke-opacity:1" />
      <path
         d="M 327,111.76953 C 327.10938,111.83203 327.13672,111.83984 327.26953,111.87109 C 327.40625,111.89844 327.53516,111.90234 327.66016,111.89062"
         id="path482"
         style="fill:none;stroke:#ffffff;stroke-width:0.66299999;stroke-linecap:round;stroke-linejoin:miter;stroke-miterlimit:4;stroke-opacity:1" />
      <path
         d="M 324.41797,94.933594 C 324.39453,94.695312 324.41797,94.429687 324.50391,94.160156 C 324.71484,93.480469 325.35156,92.96875 325.70312,93.078125 C 325.75,93.09375 325.8125,92.972656 325.85938,92.988281 C 325.90625,93.003906 325.89062,93.140625 325.9375,93.152344 C 326.28906,93.261719 326.51953,94.046875 326.30469,94.726562 C 326.22266,94.992188 326.08984,95.226562 325.9375,95.40625"
         id="path484"
         style="fill:none;stroke:#ffffff;stroke-width:0.66299999;stroke-linecap:butt;stroke-linejoin:miter;stroke-miterlimit:4;stroke-opacity:1" />
      <path
         d="M 324.84766,96.207031 C 324.16016,95.996094 323.73438,95.402344 323.92578,94.785156 C 323.99609,94.554688 324.1875,94.542969 324.1875,94.542969 C 324.12891,94.726563 324.53516,95.128906 325.12891,95.316406 C 325.72266,95.5 326.28906,95.402344 326.33984,95.214844 C 326.33984,95.214844 326.49219,95.335938 326.41797,95.566406 C 326.22656,96.1875 325.53906,96.425781 324.84766,96.207031 z"
         id="path486"
         style="fill:none;stroke:#ffffff;stroke-width:0.66299999;stroke-linecap:butt;stroke-linejoin:round;stroke-miterlimit:4;stroke-opacity:1" />
      <path
         d="M 324.65234,96.164062 C 324.61328,96.285156 324.59766,96.308594 324.51562,96.421875 C 324.43359,96.53125 324.33984,96.621094 324.23828,96.691406"
         id="path488"
         style="fill:none;stroke:#ffffff;stroke-width:0.66299999;stroke-linecap:round;stroke-linejoin:miter;stroke-miterlimit:4;stroke-opacity:1" />
      <path
         d="M 330.02344,110.39062 C 330.11719,110.17188 330.26953,109.95312 330.47656,109.75781 C 330.99609,109.27344 331.79688,109.13672 332.05078,109.40625 C 332.08203,109.44141 332.19922,109.37109 332.23438,109.40625 C 332.26562,109.44141 332.18359,109.55078 332.21875,109.58594 C 332.47266,109.85547 332.28906,110.64844 331.76562,111.13672 C 331.5625,111.32812 331.33594,111.46875 331.10938,111.54688"
         id="path490"
         style="fill:none;stroke:#ffffff;stroke-width:0.66299999;stroke-linecap:butt;stroke-linejoin:miter;stroke-miterlimit:4;stroke-opacity:1" />
      <path
         d="M 329.76953,111.71484 C 329.27734,111.1875 329.19531,110.46484 329.66406,110.01953 C 329.83984,109.85547 330.01562,109.9375 330.01562,109.9375 C 329.87109,110.06641 330.02734,110.61719 330.45312,111.07422 C 330.87891,111.52734 331.42188,111.71484 331.55859,111.58203 C 331.55859,111.58203 331.62891,111.76172 331.45312,111.92578 C 330.98047,112.37109 330.26562,112.23828 329.76953,111.71484 z"
         id="path492"
         style="fill:none;stroke:#ffffff;stroke-width:0.66299999;stroke-linecap:butt;stroke-linejoin:round;stroke-miterlimit:4;stroke-opacity:1" />
      <path
         d="M 329.62109,111.57812 C 329.52734,111.66406 329.5,111.67969 329.375,111.73438 C 329.25,111.78906 329.125,111.82422 329,111.83594"
         id="path494"
         style="fill:none;stroke:#ffffff;stroke-width:0.66299999;stroke-linecap:round;stroke-linejoin:miter;stroke-miterlimit:4;stroke-opacity:1" />
      <path
         d="M 291.19922,143.37891 C 294.36328,143.88281 293.9375,143.61719 293.9375,143.61719 C 293.94141,143.61719 294.39844,143.49219 291.27734,142.99609 C 288.14844,142.44922 283.97656,140.66016 283.97656,140.6875 C 283.94531,140.72266 288.00781,142.81641 291.19922,143.37891"
         id="path496"
         style="fill:#ffffff;fill-opacity:1;fill-rule:nonzero;stroke:none" />
      <path
         d="M 291.19922,143.37891 C 294.36328,143.88281 293.9375,143.61719 293.9375,143.61719 C 293.94141,143.61719 294.39844,143.49219 291.27734,142.99609 C 288.14844,142.44922 283.97656,140.66016 283.97656,140.6875 C 283.94531,140.72266 288.00781,142.81641 291.19922,143.37891 z"
         id="path498"
         style="fill:none;stroke:#ffffff;stroke-width:0.32699999;stroke-linecap:butt;stroke-linejoin:miter;stroke-miterlimit:4;stroke-opacity:1" />
      <path
         d="M 276.40234,135.70703 C 278.76172,137.87109 278.63672,137.30859 278.60156,137.34766 C 278.63672,137.3125 279,137.55078 276.67188,135.41797 C 274.30078,133.31641 271.67578,129.64062 271.65234,129.64062 C 271.58203,129.66797 273.98828,133.55469 276.40234,135.70703"
         id="path500"
         style="fill:#ffffff;fill-opacity:1;fill-rule:nonzero;stroke:none" />
      <path
         d="M 276.40234,135.70703 C 278.76172,137.87109 278.63672,137.30859 278.60156,137.34766 C 278.63672,137.3125 279,137.55078 276.67188,135.41797 C 274.30078,133.31641 271.67578,129.64062 271.65234,129.64062 C 271.58203,129.66797 273.98828,133.55469 276.40234,135.70703 z"
         id="path502"
         style="fill:none;stroke:#ffffff;stroke-width:0.32699999;stroke-linecap:butt;stroke-linejoin:miter;stroke-miterlimit:4;stroke-opacity:1" />
      <path
         d="M 268.18359,122.59375 C 269.27734,125.60937 269.32031,125.09766 269.31641,125.10156 C 269.32031,125.09766 269.63672,125.44531 268.55859,122.47656 C 267.51172,119.47656 267.05078,114.98047 266.99609,114.98047 C 266.9375,114.97266 267.11719,119.53516 268.18359,122.59375"
         id="path504"
         style="fill:#ffffff;fill-opacity:1;fill-rule:nonzero;stroke:none" />
      <path
         d="M 268.18359,122.59375 C 269.27734,125.60938 269.32031,125.09766 269.31641,125.10156 C 269.32031,125.09766 269.63672,125.44531 268.55859,122.47656 C 267.51172,119.47656 267.05078,114.98047 266.99609,114.98047 C 266.9375,114.97266 267.11719,119.53516 268.18359,122.59375 z"
         id="path506"
         style="fill:none;stroke:#ffffff;stroke-width:0.32699999;stroke-linecap:butt;stroke-linejoin:miter;stroke-miterlimit:4;stroke-opacity:1" />
      <path
         d="M 267.41797,107.04297 C 266.82422,110.19531 267.22656,109.78906 267.17969,109.78125 C 267.22656,109.78906 267.21875,110.23047 267.80078,107.125 C 268.34375,104 270.17969,99.882812 270.13281,99.832031 C 270.07422,99.785156 267.97656,103.85547 267.41797,107.04297"
         id="path508"
         style="fill:#ffffff;fill-opacity:1;fill-rule:nonzero;stroke:none" />
      <path
         d="M 267.41797,107.04297 C 266.82422,110.19531 267.22656,109.78906 267.17969,109.78125 C 267.22656,109.78906 267.21875,110.23047 267.80078,107.125 C 268.34375,104 270.17969,99.882812 270.13281,99.832031 C 270.07422,99.785156 267.97656,103.85547 267.41797,107.04297 z"
         id="path510"
         style="fill:none;stroke:#ffffff;stroke-width:0.32699999;stroke-linecap:butt;stroke-linejoin:miter;stroke-miterlimit:4;stroke-opacity:1" />
      <path
         d="M 274.37891,93.199219 C 272.35547,95.683594 272.86719,95.496094 272.84375,95.480469 C 272.86719,95.496094 272.67969,95.90625 274.67578,93.453125 C 276.68359,90.996094 280.20703,88.152344 280.24219,88.195312 C 280.28125,88.234375 276.42969,90.695312 274.37891,93.199219"
         id="path512"
         style="fill:#ffffff;fill-opacity:1;fill-rule:nonzero;stroke:none" />
      <path
         d="M 274.37891,93.199219 C 272.35547,95.683594 272.86719,95.496094 272.84375,95.480469 C 272.86719,95.496094 272.67969,95.90625 274.67578,93.453125 C 276.68359,90.996094 280.20703,88.152344 280.24219,88.195313 C 280.28125,88.234375 276.42969,90.695313 274.37891,93.199219 z"
         id="path514"
         style="fill:none;stroke:#ffffff;stroke-width:0.32699999;stroke-linecap:butt;stroke-linejoin:miter;stroke-miterlimit:4;stroke-opacity:1" />
      <path
         d="M 292.18359,143.35547 C 292.17969,143.23438 292.33203,141.67969 291.64844,141.23828 C 291.05078,140.85938 290.97266,141.92969 290.59766,141.84766 C 290.16797,141.75 290.15625,141.375 290.06641,140.76562 C 290.00781,140.39844 289.95312,139.56641 289.18359,139.34766 C 288.14453,139.05469 288.50781,140.65234 287.86719,140.69922 C 287.28906,140.75 287.35547,139.83203 287.35156,139.20703 C 287.34766,138.14844 286.89453,137.5 285.85938,137.64453 C 284.67969,137.74219 285.73047,139.61719 285.19531,139.83594 C 284.69531,140.04297 284.35547,139.71484 284.05469,139.16797 C 283.41406,138.01172 282.13281,138.03516 281.39062,139.14844 C 280.63281,140.29297 281.33203,141.60938 282.8125,141.50781 C 283.48047,141.46484 283.92188,141.60547 284.11719,142.12109 C 284.35156,142.76172 281.96875,142.83203 282.76562,143.97266 C 283.53125,144.96875 284.59375,144.89844 285.37109,144.1875 C 285.85938,143.74219 286.39844,143.12109 286.87891,143.48047 C 287.44531,143.91406 285.99219,144.9375 287.25,145.36719 C 288.20312,145.69141 288.73047,145.04297 288.98047,144.77344 C 289.39062,144.33984 289.59766,143.96875 290.0625,144.07422 C 290.46484,144.16016 290.05078,145.15625 290.85547,145.07422 C 291.77344,144.97656 292.13672,143.46094 292.18359,143.35547 z M 278.02344,136.78125 C 278.07422,136.67969 278.95312,135.42578 278.55469,134.75 C 278.21875,134.14453 277.65625,135.00391 277.38281,134.75 C 277.07422,134.44922 277.25781,134.10156 277.46094,133.55078 C 277.58594,133.21094 277.91016,132.5 277.35156,131.95312 C 276.64062,131.16406 276.16016,132.73438 275.60547,132.44922 C 275.11719,132.19141 275.56641,131.47656 275.86328,130.9375 C 276.32031,130.06641 276.30469,129.24609 275.35156,128.875 C 274.25781,128.42188 274.32422,130.48047 273.74219,130.42969 C 273.22266,130.35938 273.05469,129.94141 273.04297,129.34375 C 273.10938,128.00781 271.96875,127.4375 270.78906,128.04297 C 269.60938,128.65234 269.61328,130.09766 270.86328,130.75 C 271.47266,131.02344 271.81641,131.32812 271.72656,131.86719 C 271.64453,132.51953 269.51172,131.48047 269.6875,132.8125 C 269.86328,134.02734 270.74609,134.52344 271.79297,134.25 C 272.42188,134.10156 273.22266,133.79297 273.43359,134.35156 C 273.6875,135.01172 271.99219,135.16406 272.81641,136.16797 C 273.48047,136.89453 274.26953,136.56641 274.61328,136.45703 C 275.1875,136.26953 275.52344,136.06641 275.85938,136.39453 C 276.15625,136.66406 275.30859,137.33984 276.03906,137.64453 C 276.89062,137.97266 277.93359,136.85156 278.02344,136.78125 z M 269.01953,124.32031 C 269.11719,124.25391 270.49609,123.58594 270.51562,122.78906 C 270.53125,122.09375 269.59375,122.57422 269.47266,122.22266 C 269.33594,121.8125 269.64062,121.61328 270.10156,121.22656 C 270.37891,120.98828 271.04688,120.51953 270.83594,119.76563 C 270.55469,118.74609 269.40625,119.86719 269.03516,119.35156 C 268.69531,118.89844 269.49219,118.48438 270.01562,118.16016 C 270.89062,117.61328 271.22656,116.90234 270.55078,116.11328 C 269.85938,115.17969 268.85156,117.01172 268.39453,116.67969 C 267.94141,116.36719 268.05859,115.91797 268.36719,115.38672 C 269.03516,114.25391 268.29688,113.19531 267,113.15234 C 265.64453,113.10547 264.96094,114.36328 265.77344,115.54688 C 266.15234,116.08203 266.24219,116.52344 265.93359,116.94531 C 265.51953,117.47266 264.22266,115.52344 263.68359,116.76953 C 263.26953,117.91406 263.84766,118.76953 264.84375,119.05469 C 265.46484,119.23047 266.25781,119.36719 266.20703,119.94922 C 266.13281,120.64453 264.53906,119.95313 264.82031,121.22266 C 265.03516,122.1875 265.84375,122.29688 266.19922,122.36719 C 266.77734,122.48828 267.19141,122.47266 267.33984,122.91406 C 267.47266,123.29297 266.42578,123.45703 266.90625,124.08984 C 267.45312,124.80469 268.90625,124.33594 269.01953,124.32031 z M 267.29688,109.05469 C 267.42578,109.04297 268.90234,109.125 269.32422,108.44141 C 269.68359,107.84375 268.63281,107.80859 268.69922,107.44141 C 268.78125,107.01562 269.16406,106.99219 269.73828,106.875 C 270.09375,106.80469 270.90234,106.71875 271.08203,105.95313 C 271.32812,104.92578 269.76562,105.33984 269.71094,104.71875 C 269.6875,104.17188 270.53516,104.18359 271.15234,104.15625 C 272.15625,104.09766 272.80078,103.64453 272.63672,102.64062 C 272.45312,101.47266 270.73047,102.60547 270.47266,102.07812 C 270.26562,101.60547 270.50781,101.23047 271.05078,100.92578 C 272.19922,100.26953 272.08594,98.996094 270.97266,98.320312 C 269.81641,97.617187 268.59375,98.378906 268.71094,99.800781 C 268.76172,100.44531 268.70703,100.91016 268.19141,101.11328 C 267.59766,101.37891 267.36719,99.019531 266.32422,99.863281 C 265.35938,100.64453 265.44141,101.67188 266.20312,102.41406 C 266.65625,102.87109 267.32812,103.39453 266.95312,103.86328 C 266.53125,104.42969 265.48438,103.05078 265.11719,104.29688 C 264.83984,105.24609 265.5,105.73828 265.77344,105.97266 C 266.23438,106.35938 266.58984,106.54688 266.50391,107.00391 C 266.42969,107.39844 265.4375,107.03516 265.53906,107.81641 C 265.65234,108.70703 267.20312,109.01172 267.29688,109.05469 z M 273.25391,94.84375 C 273.35938,94.890625 274.63281,95.703125 275.33203,95.3125 C 275.93359,94.960937 275.03516,94.414062 275.26953,94.125 C 275.53906,93.785156 275.90234,93.96875 276.46484,94.152344 C 276.80859,94.261719 277.55469,94.578125 278.07422,93.992187 C 278.80859,93.226562 277.23828,92.824219 277.49609,92.257812 C 277.73438,91.761719 278.46875,92.179687 279.01953,92.457031 C 279.91406,92.882812 280.73828,92.84375 281.05469,91.851562 C 281.46094,90.742187 279.41016,90.894531 279.44141,90.3125 C 279.47656,89.777344 279.89062,89.597656 280.51562,89.59375 C 281.81641,89.554687 282.36719,88.429687 281.71484,87.277344 C 281.05859,86.121094 279.58984,86.144531 279.01953,87.472656 C 278.75,88.0625 278.45703,88.410156 277.92188,88.359375 C 277.26953,88.296875 278.21484,86.121094 276.89453,86.351562 C 275.70312,86.597656 275.23828,87.488281 275.54688,88.519531 C 275.71875,89.144531 276.05859,89.929687 275.50781,90.160156 C 274.86328,90.445312 274.625,88.738281 273.67969,89.628906 C 272.98828,90.328125 273.32422,91.082031 273.44922,91.421875 C 273.65625,91.984375 273.85938,92.304687 273.56641,92.667969 C 273.3125,92.980469 272.625,92.175781 272.33984,92.914062 C 272.00781,93.746094 273.17969,94.753906 273.25391,94.84375 z M 303.08984,143.35547 C 303.09766,143.23438 302.94141,141.67969 303.625,141.23828 C 304.22656,140.85938 304.30469,141.92969 304.67578,141.84766 C 305.10547,141.75 305.12109,141.375 305.21094,140.76562 C 305.26953,140.39844 305.32422,139.56641 306.08984,139.34766 C 307.12891,139.05469 306.76562,140.65234 307.41016,140.69922 C 307.98438,140.75 307.92188,139.83203 307.92578,139.20703 C 307.92969,138.14844 308.37891,137.5 309.41797,137.64453 C 310.59375,137.74219 309.54688,139.61719 310.07812,139.83594 C 310.58203,140.04297 310.92188,139.71484 311.21875,139.16797 C 311.86328,138.01172 313.14453,138.03516 313.88281,139.14844 C 314.64453,140.29297 313.94141,141.60938 312.46094,141.50781 C 311.79297,141.46484 311.35547,141.60547 311.16016,142.12109 C 310.92188,142.76172 313.30859,142.83203 312.51172,143.97266 C 311.74609,144.96875 310.67969,144.89844 309.90625,144.1875 C 309.41797,143.74219 308.87891,143.12109 308.39844,143.48047 C 307.83203,143.91406 309.28516,144.9375 308.02734,145.36719 C 307.07422,145.69141 306.54297,145.04297 306.29688,144.77344 C 305.88281,144.33984 305.67578,143.96875 305.21094,144.07422 C 304.8125,144.16016 305.22266,145.15625 304.41797,145.07422 C 303.50391,144.97656 303.13672,143.46094 303.08984,143.35547 z M 317.25,136.78125 C 317.19922,136.67969 316.32422,135.42578 316.71875,134.75 C 317.05469,134.14453 317.61719,135.00391 317.89453,134.75 C 318.20312,134.44922 318.01562,134.10156 317.81641,133.55078 C 317.69141,133.21094 317.36328,132.5 317.92578,131.95312 C 318.63281,131.16406 319.11719,132.73438 319.66797,132.44922 C 320.16016,132.19141 319.71094,131.47656 319.41406,130.9375 C 318.95703,130.06641 318.96875,129.24609 319.92578,128.875 C 321.01562,128.42188 320.95312,130.48047 321.53125,130.42969 C 322.05078,130.35938 322.21875,129.94141 322.23047,129.34375 C 322.16406,128.00781 323.30469,127.4375 324.48828,128.04297 C 325.66797,128.65234 325.66406,130.09766 324.41016,130.75 C 323.80078,131.02344 323.45703,131.32812 323.54688,131.86719 C 323.62891,132.51953 325.76172,131.48047 325.58984,132.8125 C 325.41016,134.02734 324.53125,134.52344 323.48438,134.25 C 322.85547,134.10156 322.05469,133.79297 321.84375,134.35156 C 321.58594,135.01172 323.28516,135.16406 322.45703,136.16797 C 321.79297,136.89453 321.00391,136.56641 320.66406,136.45703 C 320.08984,136.26953 319.75391,136.06641 319.41797,136.39453 C 319.12109,136.66406 319.96875,137.33984 319.23438,137.64453 C 318.38281,137.97266 317.34375,136.85156 317.25,136.78125 z M 326.25391,124.32031 C 326.16016,124.25391 324.78125,123.58594 324.76172,122.78906 C 324.74609,122.09375 325.67969,122.57422 325.80469,122.22266 C 325.94141,121.8125 325.63281,121.61328 325.17188,121.22656 C 324.89844,120.98828 324.23047,120.51953 324.4375,119.76563 C 324.72266,118.74609 325.87109,119.86719 326.24219,119.35156 C 326.58203,118.89844 325.78516,118.48438 325.26172,118.16016 C 324.38281,117.61328 324.04688,116.90234 324.72656,116.11328 C 325.41797,115.17969 326.42188,117.01172 326.87891,116.67969 C 327.33594,116.36719 327.21484,115.91797 326.91016,115.38672 C 326.24219,114.25391 326.97656,113.19531 328.27344,113.15234 C 329.62891,113.10547 330.3125,114.36328 329.5,115.54688 C 329.125,116.08203 329.03516,116.52344 329.33984,116.94531 C 329.75391,117.47266 331.05469,115.52344 331.59375,116.76953 C 332.00781,117.91406 331.42578,118.76953 330.43359,119.05469 C 329.8125,119.23047 329.01953,119.36719 329.06641,119.94922 C 329.14062,120.64453 330.73828,119.95313 330.45703,121.22266 C 330.24219,122.1875 329.42969,122.29688 329.07812,122.36719 C 328.5,122.48828 328.08594,122.47266 327.9375,122.91406 C 327.80469,123.29297 328.84766,123.45703 328.36719,124.08984 C 327.82031,124.80469 326.37109,124.33594 326.25391,124.32031 z M 327.98047,109.05469 C 327.85156,109.04297 326.375,109.125 325.95312,108.44141 C 325.58984,107.84375 326.64453,107.80859 326.57422,107.44141 C 326.49609,107.01562 326.11328,106.99219 325.53516,106.875 C 325.18359,106.80469 324.37109,106.71875 324.19531,105.95313 C 323.94922,104.92578 325.51172,105.33984 325.5625,104.71875 C 325.58984,104.17188 324.73828,104.18359 324.12109,104.15625 C 323.12109,104.09766 322.47266,103.64453 322.63672,102.64062 C 322.82422,101.47266 324.54297,102.60547 324.80078,102.07812 C 325.00781,101.60547 324.76562,101.23047 324.22656,100.92578 C 323.07422,100.26953 323.19141,98.996094 324.30469,98.320312 C 325.45703,97.617187 326.67969,98.378906 326.5625,99.800781 C 326.51172,100.44531 326.56641,100.91016 327.08203,101.11328 C 327.67969,101.37891 327.91016,99.019531 328.95312,99.863281 C 329.91406,100.64453 329.83594,101.67188 329.07422,102.41406 C 328.62109,102.87109 327.94531,103.39453 328.32422,103.86328 C 328.74609,104.42969 329.79297,103.05078 330.16016,104.29688 C 330.43359,105.24609 329.77734,105.73828 329.50391,105.97266 C 329.04297,106.35938 328.68359,106.54688 328.77344,107.00391 C 328.84766,107.39844 329.83984,107.03516 329.73438,107.81641 C 329.625,108.70703 328.07422,109.01172 327.98047,109.05469 z M 322.01953,94.84375 C 321.91406,94.890625 320.64062,95.703125 319.94531,95.3125 C 319.34375,94.960937 320.24219,94.414062 320.00391,94.125 C 319.73438,93.785156 319.375,93.96875 318.8125,94.152344 C 318.46875,94.261719 317.72266,94.578125 317.20312,93.992187 C 316.46875,93.226562 318.03906,92.824219 317.78125,92.257812 C 317.53906,91.761719 316.80469,92.179687 316.25781,92.457031 C 315.35938,92.882812 314.53906,92.84375 314.21875,91.851562 C 313.8125,90.742187 315.86719,90.894531 315.83594,90.3125 C 315.79688,89.777344 315.38281,89.597656 314.76172,89.59375 C 313.45703,89.554687 312.91016,88.429687 313.5625,87.277344 C 314.21875,86.121094 315.68359,86.144531 316.25391,87.472656 C 316.52734,88.0625 316.82031,88.410156 317.35547,88.359375 C 318.00781,88.296875 317.0625,86.121094 318.38281,86.351562 C 319.57422,86.597656 320.03906,87.488281 319.72656,88.519531 C 319.55469,89.144531 319.21484,89.929687 319.76953,90.160156 C 320.41406,90.445312 320.64844,88.738281 321.59766,89.628906 C 322.28906,90.328125 321.95312,91.082031 321.82812,91.421875 C 321.62109,91.984375 321.41797,92.304687 321.70703,92.667969 C 321.96094,92.980469 322.64844,92.175781 322.9375,92.914062 C 323.26953,93.746094 322.09375,94.753906 322.01953,94.84375 z"
         id="path516"
         style="fill:none;stroke:#ffffff;stroke-width:0.796;stroke-linecap:butt;stroke-linejoin:miter;stroke-miterlimit:4;stroke-opacity:1" />
      <path
         d="M 304.07812,143.37891 C 300.91016,143.88281 301.33984,143.61719 301.33594,143.61719 C 301.33594,143.61719 300.87891,143.49219 304,142.99609 C 307.12891,142.44922 311.29687,140.66016 311.29687,140.6875 C 311.33203,140.72266 307.26953,142.81641 304.07812,143.37891"
         id="path518"
         style="fill:#ffffff;fill-opacity:1;fill-rule:nonzero;stroke:none" />
      <path
         d="M 304.07812,143.37891 C 300.91016,143.88281 301.33984,143.61719 301.33594,143.61719 C 301.33594,143.61719 300.87891,143.49219 304,142.99609 C 307.12891,142.44922 311.29688,140.66016 311.29688,140.6875 C 311.33203,140.72266 307.26953,142.81641 304.07812,143.37891 z"
         id="path520"
         style="fill:none;stroke:#ffffff;stroke-width:0.32699999;stroke-linecap:butt;stroke-linejoin:miter;stroke-miterlimit:4;stroke-opacity:1" />
      <path
         d="M 318.875,135.70703 C 316.51172,137.87109 316.64063,137.30859 316.67188,137.34766 C 316.64063,137.3125 316.27734,137.55078 318.60547,135.41797 C 320.97266,133.31641 323.60156,129.64062 323.625,129.64062 C 323.69531,129.66797 321.28906,133.55469 318.875,135.70703"
         id="path522"
         style="fill:#ffffff;fill-opacity:1;fill-rule:nonzero;stroke:none" />
      <path
         d="M 318.875,135.70703 C 316.51172,137.87109 316.64062,137.30859 316.67188,137.34766 C 316.64062,137.3125 316.27734,137.55078 318.60547,135.41797 C 320.97266,133.31641 323.60156,129.64062 323.625,129.64062 C 323.69531,129.66797 321.28906,133.55469 318.875,135.70703 z"
         id="path524"
         style="fill:none;stroke:#ffffff;stroke-width:0.32699999;stroke-linecap:butt;stroke-linejoin:miter;stroke-miterlimit:4;stroke-opacity:1" />
      <path
         d="M 327.09375,122.59375 C 325.99609,125.60937 325.95703,125.09766 325.96094,125.10156 C 325.95312,125.09766 325.64063,125.44531 326.71875,122.47656 C 327.76562,119.47656 328.22656,114.98047 328.28125,114.98047 C 328.33984,114.97266 328.15625,119.53516 327.09375,122.59375"
         id="path526"
         style="fill:#ffffff;fill-opacity:1;fill-rule:nonzero;stroke:none" />
      <path
         d="M 327.09375,122.59375 C 325.99609,125.60938 325.95703,125.09766 325.96094,125.10156 C 325.95312,125.09766 325.64062,125.44531 326.71875,122.47656 C 327.76562,119.47656 328.22656,114.98047 328.28125,114.98047 C 328.33984,114.97266 328.15625,119.53516 327.09375,122.59375 z"
         id="path528"
         style="fill:none;stroke:#ffffff;stroke-width:0.32699999;stroke-linecap:butt;stroke-linejoin:miter;stroke-miterlimit:4;stroke-opacity:1" />
      <path
         d="M 327.85938,107.04297 C 328.44922,110.19531 328.05078,109.78906 328.09375,109.78125 C 328.05078,109.78906 328.05859,110.23047 327.47266,107.125 C 326.92969,104 325.09375,99.882812 325.14063,99.832031 C 325.20312,99.785156 327.30078,103.85547 327.85938,107.04297"
         id="path530"
         style="fill:#ffffff;fill-opacity:1;fill-rule:nonzero;stroke:none" />
      <path
         d="M 327.85938,107.04297 C 328.44922,110.19531 328.05078,109.78906 328.09375,109.78125 C 328.05078,109.78906 328.05859,110.23047 327.47266,107.125 C 326.92969,104 325.09375,99.882812 325.14062,99.832031 C 325.20312,99.785156 327.30078,103.85547 327.85938,107.04297 z"
         id="path532"
         style="fill:none;stroke:#ffffff;stroke-width:0.32699999;stroke-linecap:butt;stroke-linejoin:miter;stroke-miterlimit:4;stroke-opacity:1" />
      <path
         d="M 320.89844,93.199219 C 322.92187,95.683594 322.40625,95.496094 322.42969,95.480469 C 322.41016,95.496094 322.59375,95.90625 320.59766,93.453125 C 318.58984,90.996094 315.06641,88.152344 315.03125,88.195312 C 314.99609,88.234375 318.84375,90.695312 320.89844,93.199219"
         id="path534"
         style="fill:#ffffff;fill-opacity:1;fill-rule:nonzero;stroke:none" />
      <path
         d="M 320.89844,93.199219 C 322.92188,95.683594 322.40625,95.496094 322.42969,95.480469 C 322.41016,95.496094 322.59375,95.90625 320.59766,93.453125 C 318.58984,90.996094 315.06641,88.152344 315.03125,88.195313 C 314.99609,88.234375 318.84375,90.695313 320.89844,93.199219 z"
         id="path536"
         style="fill:none;stroke:#ffffff;stroke-width:0.32699999;stroke-linecap:butt;stroke-linejoin:miter;stroke-miterlimit:4;stroke-opacity:1" />
    </g>
  </g>
</svg>
